<?xml version="1.0" encoding="UTF-8"?>
<svg id="b" data-name="Layer 2" xmlns="http://www.w3.org/2000/svg" width="845.4" height="410.013" viewBox="0 0 845.4 410.013">
  <g id="c" data-name="OBJECTS">
    <g id="d" data-name="Raised Hands">
      <g id="e" data-name="Multiracial Raised hands">
        <g id="f" data-name="Raised hand">
          <g id="g" data-name="g509">
            <path id="h" data-name="path495" d="M371.381,45.892s-5.214-1.639-6.555,1.49c-1.341,3.129-1.043,3.427.745,5.512,1.788,2.086,6.853,7.896,8.939,9.833,2.086,1.937,12.068,12.962,15.047,18.027,2.98,5.065,8.045,23.688,11.025,30.84,2.98,7.151,9.833,16.239,10.876,25.327,1.043,9.088-5.065,53.038-5.065,53.038,0,0,30.264,14.663,53.862-3.878-7.585-45.089-7.585-65.316-2.528-74.586,5.057-9.271,14.749-21.491,17.066-28.022,2.318-6.532,6.532-14.117,7.585-17.066,1.053-2.95,1.475-6.321,3.582-9.271s4.846-3.582,4.003-6.321-6.11-3.371-11.799.632c-5.689,4.003-8.428,12.431-8.428,12.431,0,0-8.006,12.431-10.324,13.485-2.318,1.053-4.635-2.318-5.267-10.113-.632-7.796-1.264-26.969-1.686-39.4-.421-12.431-1.818-21.81-4.947-23.151-3.129-1.341-6.853-.968-8.641,2.756-1.192,2.309-.149,12.515-.298,18.921-.149,6.406-.447,15.494-.447,19.07s.149,14.898-1.937,14.898c-2.682-20.709-5.363-28.903-6.853-37.097-1.49-8.194-5.363-19.964-7.002-21.603-1.639-1.639-6.704-3.576-10.578,2.533-1.043,2.086,2.98,20.411,3.576,26.37.596,5.959,3.725,22.348,4.321,25.923s1.639,6.555-1.043,7.449c-2.682.894-5.214-7.151-8.045-13.856-2.831-6.704-8.045-18.474-9.833-23.688-1.788-5.214-2.682-13.558-7.151-14.153s-7.002,1.341-7.449,4.916c-.447,3.576,6.108,24.582,7.896,31.138,1.788,6.555,7.151,17.58,7.3,20.113s-2.682,2.384-4.767.149-7.3-8.343-13.558-13.111c-6.257-4.767-8.641-8.045-11.621-9.535h0Z" fill="#f68b6f" fill-rule="evenodd" stroke-width="0"/>
            <path id="i" data-name="path496" d="M364.305,51.623c-.401-2.438,1.642-3.77,3.988-3.24,1.576,1.281,3.959,4.239,3.716,5.375s-1.375,2.696-3.889,2.297c-1.054-.765-3.815-4.431-3.815-4.431Z" fill="#fcd5c7" fill-rule="evenodd" stroke-width="0"/>
            <path id="j" data-name="path497" d="M386.187,16.803s.559,5.508,2.716,6.978,4.804-.196,5.098-2.647c.294-2.451-1.245-6.39-1.245-6.39,0,0-4.804-2.157-6.568,2.059h0Z" fill="#fcd5c7" fill-rule="evenodd" stroke-width="0"/>
            <path id="k" data-name="path498" d="M413.328,2.752s.196,6.735,2.167,8.447c1.971,1.712,5.531.26,6.109-2.14.578-2.4-.775-7.692-.775-7.692,0,0-4.73-2.386-7.501,1.384Z" fill="#fcd5c7" fill-rule="evenodd" stroke-width="0"/>
            <path id="l" data-name="path499" d="M440.775,4.884s-.758,5.337.981,7.283,5.033,1.059,5.908-1.249c.875-2.308.304-6.358.304-6.358,0,0-3.971-3.068-7.194.324h0Z" fill="#fcd5c7" fill-rule="evenodd" stroke-width="0"/>
            <path id="m" data-name="path500" d="M490.121,52.149s-2.98-.894-4.172,0c-2.533,2.98-3.576,4.172-2.98,5.661.596,1.49.298,2.384,1.788,1.49s4.321-4.619,5.363-7.151h0Z" fill="#fcd5c7" fill-rule="evenodd" stroke-width="0"/>
          </g>
          <path id="n" data-name="path509" d="M404.018,162.741s24.775-16.199,61.937-4.288c4.288,49.55,7.623,116.728,11.435,130.068,3.812,13.34,4.764,17.628.953,24.775-3.812,7.147-.953,4.764.476,13.817,1.429,9.052-1.906,8.576-1.906,18.105s1.429,15.723,3.335,27.634c1.906,11.911,2.382,37.162,2.382,37.162h-99.1s.953-69.084,6.194-80.995c5.241-11.911,4.288-14.293,3.812-29.063-.476-14.77-9.052-16.675-3.335-28.11,5.717-11.435,8.576-21.44,7.623-38.592-.953-17.152-9.529-57.173,6.194-70.513Z" fill="#e887b3" stroke-width="0"/>
          <path id="o" data-name="path510" d="M446.439,169.697c-6.258.014-12.521.487-19.074,1.142-3.989.399-7.959,1.724-11.913,2.383-3.681.614-7.429,1.059-10.958,2.383-3.198,1.199-6.008,3.067-8.865,4.853-2.211,13.429-.144,30.187,1.252,42.761,3.288-1.499,6.699-2.759,9.995-4.257,1.489-.677,2.751-1.824,4.288-2.383,12.724-4.627,30.023-4.288,43.357-4.288,4.95,0,10.384-.261,15.566.335-.985-13.784-1.991-27.538-3.062-41.017-.274-.05-1.441-.272-1.546-.292-6.53-1.187-12.782-1.634-19.04-1.62Z" fill="#e06ca6" stroke-width="0"/>
          <path id="p" data-name="path511" d="M443.257,220.644c-1.125.021-2.24.076-3.339.186-4.154.415-8.316,1.047-12.465,1.685-10.921,1.68-21.116,3.434-29.749,9.373.03.419.098.971.12,1.367.092,1.656.119,3.192.141,4.722.513-.301,1.024-.617,1.526-.975,5.555-3.968,15.855-7.079,22.573-8.422,2.908-.582,5.84-.31,8.759-.675,3.582-.448,7.147-1.016,10.781-1.346,5.019-.456,10.138-.257,15.16-.675,3.548-.296,6.961.339,10.444.339,1.19,0,2.557.225,3.904.585-.125-1.724-.255-3.518-.381-5.269-4.961-.459-10.341-.708-11.609-.708h-5.728c-3.307,0-6.761-.247-10.136-.186Z" fill="#e06ca6" stroke-width="0"/>
          <path id="q" data-name="path697" d="M408.033,136.495c1.665-.952,47.104-8.802,49.483-6.899,2.379,1.903,2.855,3.568-.714,3.093-3.569-.476-44.963,8.564-47.818,7.375-2.855-1.189-3.331-2.379-.952-3.568Z" fill="#6f4f64" stroke-width="0"/>
        </g>
        <g id="r" data-name="Raised hand">
          <g id="s" data-name="g524">
            <path id="t" data-name="path513" d="M289.42,86.812s-2.744-6.666-7.528-6.407c-3.241.305-2.454,2.539-2.274,4.446s-.354,8.496-1.717,10.356c-1.364,1.859-2.792,5.072-1.513,14.568,1.279,9.496,2.871,24.349,5.996,30.979s12.624,11.505,14.673,23.045c2.049,11.54-3.197,45.693-3.197,45.693,0,0,28.098,14.471,49.517.913-.714-38.208,5.352-49.359,7.872-63.444,2.52-14.086,1.169-24.345-.398-36.892-1.567-12.547-6.277-48.263-7.345-51.432-1.068-3.169-6.386-4.495-8.878-.318-.537-7.739-2.391-18.239-3.632-21.2-1.241-2.961-7.494-4.006-10.189-.964-.997-5.484-4.224-6.046-7.638-5.532-3.414.514-5.704,2.749-6.28,11.94-1.462-4.286-8.181-2.114-9.761,2.554-1.58,4.669-5.629,22.938-6.493,29.078-.864,6.14-1.216,12.617-1.216,12.617h0Z" fill="#f68b6f" fill-rule="evenodd" stroke-width="0"/>
            <path id="u" data-name="path516" d="M289.265,87.211c.251,2.669-.767,30.654-4.933,39.51" fill="none" stroke="#dd573c" stroke-linecap="round" stroke-linejoin="round"/>
            <path id="v" data-name="path517" d="M306.839,43.048c-1.587,7.651-.29,17.338-1.086,23.183-.796,5.845.566,14.18.468,21.306-.098,7.126.127,17.683-1.402,21.867" fill="none" stroke="#dd573c" stroke-linecap="round" stroke-linejoin="round"/>
            <path id="w" data-name="path518" d="M320.617,36.172c-.292.989,1.209,25.083,1.391,33.144.182,8.061,1.276,29.885,3.157,37.594" fill="none" stroke="#dd573c" stroke-linecap="round" stroke-linejoin="round"/>
            <path id="x" data-name="path519" d="M334.664,58.699s1.764,14.644,1.839,21.561c.075,6.917.443,19,3.295,26.81" fill="none" stroke="#dd573c" stroke-linecap="round" stroke-linejoin="round"/>
            <path id="y" data-name="path520" d="M279.333,82.557c1.694.656,4.484,2.842,5.058,6.052.574,3.21.007,5.848-1.438,6.392s-3.762.49-4.171-.967-.004-8.704.551-11.476h0Z" fill="#fcd5c7" fill-rule="evenodd" stroke-width="0"/>
            <path id="z" data-name="path521" d="M299.028,43.3s-.372,6.155.698,7.414,6.122,1.463,6.29.36c.168-1.104.713-6.867.329-8.055s-3.81-2.905-7.318.281Z" fill="#fcd5c7" fill-rule="evenodd" stroke-width="0"/>
            <path id="aa" data-name="path522" d="M310.201,33.408c2.763-2.436,6.832-2.548,8.447.156.584,6.201.037,7.613-1.26,8.279-1.297.666-4.937,1.009-6.906-1.118-.262-1.335-.281-7.318-.281-7.318Z" fill="#fcd5c7" fill-rule="evenodd" stroke-width="0"/>
            <path id="ab" data-name="path523" d="M321.827,38.15c2.603-2.606,6.657-2.975,8.44-.379.976,6.152.519,7.595-.733,8.342-1.252.747-4.863,1.32-6.962-.678-.346-1.316-.744-7.285-.744-7.285h0Z" fill="#fcd5c7" fill-rule="evenodd" stroke-width="0"/>
            <path id="ac" data-name="path524" d="M336.114,58.622c1.743-2.229,4.524-2.48,5.795-.182.779,5.387.491,6.639-.357,7.269-.848.63-3.32,1.066-4.798-.714-.261-1.155-.64-6.372-.64-6.372h0Z" fill="#fcd5c7" fill-rule="evenodd" stroke-width="0"/>
            <path id="ad" data-name="path525" d="M297.478,63.934c1.972-.727,4.364-1.135,6.86.715" fill="none" stroke="#dd573c" stroke-linecap="round" stroke-linejoin="round"/>
            <path id="ae" data-name="path526" d="M293.628,85.612c2.926-2.168,8.291-1.883,10.512.322" fill="none" stroke="#dd573c" stroke-linecap="round" stroke-linejoin="round"/>
            <path id="af" data-name="path527" d="M310.263,60.613c2.75-1.127,6.097-1.221,8.845.224" fill="none" stroke="#dd573c" stroke-linecap="round" stroke-linejoin="round"/>
            <path id="ag" data-name="path528" d="M310.341,82.768c2.598-2.089,7.8-1.913,9.772.14" fill="none" stroke="#dd573c" stroke-linecap="round" stroke-linejoin="round"/>
            <path id="ah" data-name="path529" d="M325.064,61.194c2.64-.407,5.49-.151,7.504,1.191" fill="none" stroke="#dd573c" stroke-linecap="round" stroke-linejoin="round"/>
            <path id="ai" data-name="path530" d="M325.686,83.23c2.428-1.073,7.035.392,8.761,2.376" fill="none" stroke="#dd573c" stroke-linecap="round" stroke-linejoin="round"/>
            <path id="aj" data-name="path531" d="M338.166,75.726c1.967-.307,3.714.259,5.444.953" fill="none" stroke="#dd573c" stroke-linecap="round" stroke-linejoin="round"/>
            <path id="ak" data-name="path532" d="M338.166,91.21c2.352-.279,5.289.273,7.028,1.668" fill="none" stroke="#dd573c" stroke-linecap="round" stroke-linejoin="round"/>
            <path id="al" data-name="path533" d="M276.824,102.406c2.394-.441,4.572-.06,7.028.596" fill="none" stroke="#dd573c" stroke-linecap="round" stroke-linejoin="round"/>
          </g>
          <path id="am" data-name="path512" d="M354.608,410.013c3.788-11.363.495-34.104,2.021-47.839,5.623-50.603,2.508-101.038,6.064-151.602-28.076,0-69.666-29.317-93.657-3.369-.267,3.357.305,6.752,0,10.107-2.039,22.426-6.57,45.981-4.043,68.726,2.767,24.906,4.949,57.456,0,82.202-2.69,13.452-8.759,29.035-8.759,41.775h98.373Z" fill="#7a1630" stroke-width="0"/>
          <path id="an" data-name="path535" d="M296.018,196.497c-.181,6.158.859,12.831.859,17.202,0,40.641,1.083,83.106-3.353,123.033-1.631,14.676-5.89,29.095-8.076,44.393-.43,3.013-2.311,14.686-5.263,24.755-.418,1.425-.865,2.801-1.326,4.133h5.23c.291-.905.582-1.807.855-2.737,3.081-10.51,4.955-22.225,5.416-25.449,2.118-14.827,6.399-29.294,8.094-44.548,4.488-40.397,3.384-83.027,3.384-123.579,0-5.065-.991-11.507-.861-16.906-1.67-.163-3.326-.27-4.959-.296ZM284.587,197.784c-1.734.459-3.424,1.063-5.071,1.807-3.62,59.531,3.526,119.828-6.187,178.106-.22,1.321-1.25,4.857-2.495,9.081s-2.714,9.282-3.882,14.307c-.71,3.053-1.284,6.064-1.65,8.926h5.006c.343-2.449.85-5.096,1.479-7.802,1.126-4.845,2.566-9.818,3.806-14.028s2.268-7.512,2.627-9.669c9.986-59.917,2.506-121.133,6.366-180.729ZM317.698,200.036c-.014,1.065-.054,2.151-.126,3.258-.534,8.161-2.503,16.944-2.503,23.207,0,27.899-1.908,55.043-4.035,82.687-1.026,13.339.725,26.489-.665,38.998-.618,5.567-4.245,21.154-7.16,36.132-1.457,7.489-2.742,14.882-3.394,21.043-.175,1.651-.297,3.194-.371,4.653h4.963c.07-1.271.185-2.658.341-4.131.624-5.894,1.884-13.196,3.329-20.619,2.889-14.844,6.489-29.941,7.221-36.529h0c1.479-13.32-.289-26.527.683-39.164,2.128-27.664,4.049-54.943,4.049-83.068,0-5.135,1.924-14.191,2.493-22.883.049-.75.071-1.494.098-2.24-1.642-.471-3.281-.91-4.922-1.342h0ZM335.379,205.144c-.431,6.326-1.005,12.672-1.438,19.174-1.097,16.454-4.634,32.986-6.725,49.717-2.802,22.413-.666,45.094-3.368,66.705-2.871,22.97-6.038,45.786-6.077,69.273h4.961c.039-23.042,3.164-45.646,6.04-68.657,2.793-22.341.655-45.022,3.366-66.707,2.055-16.443,5.625-33.067,6.754-50.002.403-6.046.946-12.035,1.373-18.069-1.604-.452-3.257-.95-4.885-1.434ZM350.947,209.218c-.523,5.388-1.393,10.958-2.14,15.701-.749,4.755-1.397,8.514-1.397,11.019,0,45.696-6.062,90.715-6.062,136.777,0,7.992-.697,19.57-.279,30.869.08,2.163.212,4.308.381,6.43h5.004c-.195-2.164-.345-4.37-.428-6.613-.405-10.968.284-22.412.284-30.685,0-45.624,6.064-90.644,6.064-136.777,0-1.484.585-5.488,1.334-10.246.733-4.652,1.593-10.188,2.138-15.666-1.607-.218-3.232-.473-4.898-.808Z" fill="#8c2344" stroke-width="0"/>
        </g>
        <g id="ao" data-name="Raised hand">
          <g id="ap" data-name="g597">
            <path id="aq" data-name="path536" d="M144.587,38.039c-4.082-1.042-5.732-1.823-9.162,4.039-3.43,5.863-4.384,17.414-4.948,21.365-.564,3.952-.867,19.02-.867,19.02,0,0-4.169-6.253-8.295-4.819s-2.431,6.514-3.039,9.554-2.214,9.944-2.647,18.89c-.433,8.946.002,19.194,2.174,26.402,7.331,24.332,13.117,21.497,15.277,28.679,1.94,6.449.997,57.841.997,57.841,0,0,35.03,13.202,53.365-1.594-4.059-35.498-5.774-53.541-4.72-60.739,1.698-11.592,4.733-24.404,5.218-41.671.231-8.213-2.267-17.045-3.05-28.944-.783-11.898.692-27.184-1.566-30.571-2.258-3.387-5.776-3.864-7.99-.694-2.214,3.17-2.605,8.512-2.605,8.512,0,0-.61-24.057-3.173-28.182-2.562-4.125-6.644-5.167-9.858-1.519-2.78-9.814-7.34-9.596-10.683-7.555-3.344,2.041-4.559,8.121-4.428,11.986h0Z" fill="#f68b6f" fill-rule="evenodd" stroke-width="0"/>
            <path id="ar" data-name="path537" d="M128.872,81.639s4.083,10.074,3.258,15.329c-.825,5.254,1.044,23.015.523,24.491-.521,1.476-3.995,5.298-3.995,5.298" fill="none" stroke="#dd573c" stroke-linecap="round" stroke-linejoin="round"/>
            <path id="as" data-name="path538" d="M144.761,38.3s1.26,7.252.566,12.984c-.694,5.732-.215,21.408-.996,26.446-.781,5.037.869,10.335-.259,12.593" fill="none" stroke="#dd573c" stroke-linecap="round" stroke-linejoin="round"/>
            <path id="at" data-name="path539" d="M159.091,34.39s.131,12.897.479,17.934c.348,5.037-1.648,22.928-2.212,26.88-.564,3.952-1.259,8.555.566,10.726" fill="none" stroke="#dd573c" stroke-linecap="round" stroke-linejoin="round"/>
            <path id="au" data-name="path540" d="M172.468,64.613s.348,9.553-.607,14.33c-.955,4.777-2.213,16.719.393,19.498" fill="none" stroke="#dd573c" stroke-linecap="round" stroke-linejoin="round"/>
            <path id="av" data-name="path541" d="M139.304,121.366c9.501,4.222,17.591,12.185,18.855,22.291" fill="none" stroke="#dd573c" stroke-linecap="round" stroke-linejoin="round"/>
            <path id="aw" data-name="path542" d="M172.527,111.721c-1.712,1.552-3.447,3.438-4.605,5.466-3.226,5.646-5.119,12.826-6.385,19.161-.361,1.806-.915,8.639-1.228,6.141" fill="none" stroke="#dd573c" stroke-linecap="round" stroke-linejoin="round"/>
            <path id="ax" data-name="path543" d="M136.171,106.689c5.94-.732,27.013,2.509,34.821,1.532" fill="none" stroke="#dd573c" stroke-linecap="round" stroke-linejoin="round"/>
            <path id="ay" data-name="path544" d="M145.627,91.335c1.248.782,3.955,1.26,8.659,1.412" fill="none" stroke="#dd573c" stroke-linecap="round" stroke-linejoin="round"/>
            <path id="az" data-name="path545" d="M161.533,93.237c.941.793,3.306,2.577,7.001,3.316" fill="none" stroke="#dd573c" stroke-linecap="round" stroke-linejoin="round"/>
            <path id="ba" data-name="path546" d="M160.055,54.302c1.955,1.949,4.56,2.189,7.124,2.701" fill="none" stroke="#dd573c" stroke-linecap="round" stroke-linejoin="round"/>
            <path id="bb" data-name="path547" d="M158.337,72.48c-.024,2.039,3.18,2.615,5.896,5.649" fill="none" stroke="#dd573c" stroke-linecap="round" stroke-linejoin="round"/>
            <path id="bc" data-name="path548" d="M173.137,68.733c.095,1.256,1.519,5.094,6.142,6.018" fill="none" stroke="#dd573c" stroke-linecap="round" stroke-linejoin="round"/>
            <path id="bd" data-name="path549" d="M171.972,84.147c1.822,2.558,4.813,3.496,7.308,3.377" fill="none" stroke="#dd573c" stroke-linecap="round" stroke-linejoin="round"/>
            <path id="be" data-name="path550" d="M146.79,50.373c2.472,2.842,7.64,2.561,9.826,1.964" fill="none" stroke="#dd573c" stroke-linecap="round" stroke-linejoin="round"/>
            <path id="bf" data-name="path551" d="M146.485,69.472c1.785,3.681,5.415,1.219,7.799.92" fill="none" stroke="#dd573c" stroke-linecap="round" stroke-linejoin="round"/>
            <path id="bg" data-name="path552" d="M132.973,55.594c1.586,3.642,6.286,3.808,8.475,3.93" fill="none" stroke="#dd573c" stroke-linecap="round" stroke-linejoin="round"/>
            <path id="bh" data-name="path553" d="M132.667,71.5c.807,1.272,2.966,1.87,7.124,2.701" fill="none" stroke="#dd573c" stroke-linecap="round" stroke-linejoin="round"/>
            <path id="bi" data-name="path554" d="M131.503,99.688c.055,2.135-4.044,7.926-9.211,9.335" fill="none" stroke="#dd573c" stroke-linecap="round" stroke-linejoin="round"/>
          </g>
          <path id="bj" data-name="path597" d="M125.387,202.553s-15.246-20.011-5.717-23.346c9.529-3.335,9.052,1.429,15.723,2.859,6.67,1.429.476-4.288,10.958-7.623,10.482-3.335,12.387-2.859,14.77,3.812,2.382,6.67,6.194,2.382,12.864-2.859s10.958-4.764,13.34,1.429c2.382,6.194,0,7.623,8.576,5.717,8.576-1.906-3.335,19.534-3.335,19.534,0,0-25.728,16.675-67.178.476Z" fill="#5290b2" stroke-width="0"/>
          <path id="bk" data-name="path598" d="M125.959,201.476s-8.085,6.401-10.107,18.192,0,190.345,0,190.345h94.33v-149.581c0-26.278-6.738-51.545-20.887-60.978-23.583,0-63.336,2.021-63.336,2.021Z" fill="#659bbe" stroke-width="0"/>
          <path id="bl" data-name="path599" d="M125.747,211.727c-1.604-.025-3.271.008-4.985.116-.075.004-.148.008-.222.014-.802.047-1.579.117-2.344.2-.577,1.272-1.092,2.662-1.528,4.151,1.309-.17,2.656-.327,4.133-.439.07-.004.14-.01.21-.014,12.945-.833,23.685,1.195,23.911.137.198-.926-7.948-3.989-19.174-4.165h0ZM201.023,213.732c-2.533.362-5.206.897-8.221,1.536-.431.09-.863.18-1.297.273-5.998,1.288-9.763,2.212-14.509,2.819-2.658.336-4.64.448-6.556.326-3.379-.232-5.237-1.248-5.508-.887-.219.292,1.154,2.293,5.13,3.251,2.057.507,4.399.703,7.201.592,4.744-.181,9.385-1.036,15.068-2.264-.191.041,1.48-.323,1.289-.281,3.653-.785,6.406-1.421,9.008-1.913-.508-1.189-1.045-2.339-1.605-3.451ZM146.258,228.672c-1.414.02-2.239.224-2.289.561-.079.53,1.81,1.295,4.832,2.323,2.681.912,7.637,2.513,12.288,3.294.081.014.164.028.245.041,3.559.585,6.756.715,9.701.312,5.631-.737,8.064-3.537,7.713-4.063-.386-.579-3.305.73-7.953.761-2.7.003-5.367-.318-8.83-.879-.076-.013-.152-.026-.228-.039-4.7-.783-9.075-1.779-12.339-2.134-1.231-.134-2.291-.189-3.139-.177h0ZM115.15,241.58c-.015,1.202-.03,2.379-.043,3.659,3.273.305,6.685,1.071,10.556,2.162.189.053.379.107.567.161,6.109,1.774,10.277,3.264,15.654,4.247,10.243,1.894,16.586-.809,16.417-1.485-.174-.698-6.602.478-15.701-1.817-4.464-1.135-9.549-3.039-15.274-4.71-.194-.058-.389-.115-.585-.171-4.06-1.172-7.877-1.89-11.59-2.046h0ZM205.79,242.602c-1.556,0-3.252.12-5.045.41-8.188,1.326-13.401,5.32-12.945,6.232.484.968,6.29-1.17,13.575-2.358,3.068-.5,5.805-.717,8.102-.898-.106-1.071-.24-2.125-.371-3.182-1.013-.121-2.113-.204-3.317-.204ZM210.182,262.614c-.99.167-2.037.38-3.184.706-3.234.904-5.857,1.989-9.54,3.343-.001,0-.166.06-.167.061-3.398,1.232-6.09,2.092-8.877,2.499-5.455.819-9.353-.632-9.665.031-.198.422,3.055,3.636,9.969,3.372,3.193-.13,6.433-.927,9.924-2.219.058-.022.115-.044.173-.065,3.532-1.307,6.621-2.752,9.273-3.847.762-.311,1.407-.532,2.095-.783v-3.096ZM138.541,273.06c-2.493-.018-4.773.172-6.866.553-4.502.818-6.917,2.318-6.764,2.788.167.514,2.824.011,7.042-.055,4.793-.075,9.496.442,16.606,1.713,0,0,.078.014.078.014,7.263,1.353,11.884,2.324,17.128,2.558,4.512.202,7.266-.365,7.266-.895,0-.55-2.71-.964-6.923-1.848-4.237-.889-10.065-2.446-16.759-3.672l-.08-.014c-3.965-.75-7.523-1.119-10.727-1.142h0ZM199.826,290.491c-1.549-.003-3.169.092-4.849.304l-.065.008c-13,1.65-21.888,7.975-21.404,8.943.484.968,9.854-3.564,21.891-5.051l.059-.008c5.893-.717,10.766-.301,14.724.434v-3.013c-2.876-.943-6.361-1.611-10.356-1.618ZM132.336,292.033c-.74.006-1.497.03-2.272.075h-.039c-6.113.286-11.117,1.627-14.815,3.347-.078.036-.128.072-.204.108.003.925.007,1.861.01,2.79.422-.112.655-.178,1.126-.296,3.83-.959,8.181-1.715,14.079-2.032h.037c5.991-.239,10.223.088,14.048.961,3.465.791,5.557,1.78,5.856,1.33.271-.406-1.321-2.309-4.975-3.933-3.344-1.486-7.669-2.392-12.851-2.352h0ZM151.267,311.071c-.621.006-1.891.671-3.708,1.332-2.369.862-5.324,1.581-9.12,1.679h-.004c-7.387.161-13.659-1.545-14.001-.518-.241.722,5.379,4.567,14.073,4.437h.004c4.421-.052,8.022-1.488,10.362-3.18,2.309-1.67,3.059-3.279,2.719-3.639-.073-.077-.181-.111-.324-.11ZM188.335,317.09c-3.031.032-4.805.351-4.822.761-.022.533,3.044,1.127,7.927,2.06,3.971.759,11.866,2.299,18.742,2.76v-3.916c-7.066-.435-13.583-1.367-18.416-1.595-1.271-.06-2.421-.08-3.431-.069ZM126.043,330.074c-2.494-.06-5.081.406-8.42,1.112,0,0-.039.008-.039.008-.999.194-1.63.302-2.395.443.01,1.398.019,2.474.029,3.859,1.01-.088,2.051-.222,3.158-.463,0,0,.043-.008.043-.008,2.821-.573,6.488-1.733,7.998-2.213,1.98-.63,3.26-1.079,3.26-1.62,0-.538-1.354-1.063-3.633-1.118h0ZM161.962,330.213c-3.45-.038-6.49.275-9.071.814-3.982.831-6.195,2.056-6.064,2.548.139.523,2.568.292,6.389.198,4.183-.103,8.713.035,14.895.806l.09.013c5.8.735,11.107,1.665,15.021,2.062,3.924.399,6.395.319,6.485-.22.088-.525-2.206-1.409-5.958-2.497-3.51-1.018-9.267-2.49-15.052-3.235,0,0-.094-.013-.094-.013-2.352-.303-4.57-.452-6.64-.475h0ZM138.68,345.807c-1.082,0-2.273.079-3.562.271-3.37.492-6.638,1.492-10.407,2.823.007-.003-.38.135-.373.133-3.702,1.301-6.151,2.239-8.996,3.015.01,1.174.017,2.318.026,3.472,3.32-.483,6.521-1.47,10.271-2.788.125-.043.249-.087.373-.13,3.947-1.382,6.563-2.377,9.763-3.19,5.793-1.455,9.906-.845,10.099-1.544.149-.536-2.507-2.058-7.194-2.06h0ZM180.158,349.901c-1.297-.034-2.482.003-3.615.118-3.604.282-5.218,1.711-4.94,2.136.222.339,1.784-.138,4.963.055,2.231.199,4.22.547,7.394,1.177,4.727.946,10.452,2.326,16.743,3.664.79.168,1.572.331,2.35.488,2.505.506,4.838.912,7.129,1.263v-3.796c-2.032-.408-3.986-.794-6.338-1.293-.909-.194-1.416-.302-2.325-.496-6.599-1.405-11.795-2.44-17.073-3.005-1.581-.171-2.991-.276-4.288-.31h0ZM131.067,365.23c-2.272.02-8.266,1.331-15.607,2.313.011,1.209.018,2.757.029,3.929,9.891-1.472,16.969-4.901,16.568-5.977-.071-.19-.413-.27-.989-.265ZM194.802,367.888c-1.391.001-2.692.041-3.947.133-3.082.226-4.963.744-4.959,1.285.004.541,1.861,1.001,4.843,1.483,2.702.437,7.385,1.055,11.786,1.254.056.003.112.006.167.008,2.778.126,5.257.03,7.49-.21v-3.494c-2.018-.024-4.182-.076-7.315-.212-.01,0-.153-.008-.163-.008-3.015-.138-5.584-.241-7.902-.239h0ZM154.951,370.93c-8.488-.063-14.558,2.651-14.318,3.619.261,1.05,6.934.1,15.036.324,8.101.225,14.636,1.655,14.978.628.338-1.015-5.945-4.302-14.868-4.557-.279-.008-.554-.013-.828-.014h0ZM169.132,388.05c-.833.015-1.301.115-1.342.314-.109.53,2.827,1.65,7.696,2.999,4.692,1.299,11.865,2.973,19.442,3.729.523.052,1.043.1,1.56.143,5.123.425,9.603.313,13.693-.341v-3.298c-4.011.308-8.178.193-13.359-.263-.499-.044-1.002-.091-1.507-.141-7.493-.74-14.291-1.9-19.278-2.548-3.117-.405-5.517-.619-6.905-.594ZM130.433,390.991c-1.513-.017-3.09.02-4.726.12-3.695.226-7.068.738-10.032,1.35.015,1.46.022,2.249.035,3.462,3.077-.329,6.449-.667,10.238-.902,4.248-.263,7.865-.307,11.225-.251,1.422-.01,3.458.435,4.698.624,3.288.566,5.044-.403,4.957-.838-.091-.456-1.734-.514-4.306-1.534-1.179-.482-3.045-1.252-5.096-1.538-2.13-.288-4.471-.466-6.993-.494h0Z" fill="#5290b2" stroke-width="0"/>
        </g>
        <g id="bm" data-name="Raised hand">
          <g id="bn" data-name="g629">
            <path id="bo" data-name="path624" d="M7.389,108.555s-5.214-1.639-6.555,1.49c-1.341,3.129-1.043,3.427.745,5.512,1.788,2.086,6.853,7.896,8.939,9.833,2.086,1.937,12.068,12.962,15.047,18.027,2.98,5.065,8.045,23.688,11.025,30.84,2.98,7.151,9.833,16.239,10.876,25.327,1.043,9.088-5.065,53.038-5.065,53.038,0,0,30.264,14.663,53.862-3.878-7.585-45.089-7.585-65.316-2.528-74.586,5.057-9.271,14.749-21.491,17.066-28.022s6.532-14.117,7.585-17.066c1.053-2.95,1.475-6.321,3.582-9.271,2.107-2.95,4.846-3.582,4.003-6.321s-6.11-3.371-11.799.632c-5.689,4.003-8.428,12.431-8.428,12.431,0,0-8.006,12.431-10.324,13.485-2.318,1.053-4.635-2.318-5.267-10.113-.632-7.796-1.264-26.969-1.686-39.4-.421-12.431-1.818-21.81-4.947-23.151-3.129-1.341-6.853-.968-8.641,2.756-1.192,2.309-.149,12.515-.298,18.921-.149,6.406-.447,15.494-.447,19.07s.149,14.898-1.937,14.898c-2.682-20.709-5.363-28.903-6.853-37.097-1.49-8.194-5.363-19.964-7.002-21.603-1.639-1.639-6.704-3.576-10.578,2.533-1.043,2.086,2.98,20.411,3.576,26.37.596,5.959,3.725,22.348,4.321,25.923.596,3.576,1.639,6.555-1.043,7.449-2.682.894-5.214-7.151-8.045-13.856-2.831-6.704-8.045-18.474-9.833-23.688-1.788-5.214-2.682-13.558-7.151-14.153-4.47-.596-7.002,1.341-7.449,4.916-.447,3.576,6.108,24.582,7.896,31.138,1.788,6.555,7.151,17.58,7.3,20.113s-2.682,2.384-4.767.149-7.3-8.343-13.558-13.111c-6.257-4.767-8.641-8.045-11.621-9.535h0Z" fill="#c6746b" fill-rule="evenodd" stroke-width="0"/>
            <path id="bp" data-name="path625" d="M.312,114.286c-.401-2.438,1.642-3.77,3.988-3.24,1.576,1.281,3.959,4.239,3.716,5.375s-1.375,2.696-3.889,2.297c-1.054-.765-3.815-4.431-3.815-4.431Z" fill="#fcd5c7" fill-rule="evenodd" stroke-width="0"/>
            <path id="bq" data-name="path626" d="M22.195,79.467s.559,5.508,2.716,6.978,4.804-.196,5.098-2.647c.294-2.451-1.245-6.39-1.245-6.39,0,0-4.804-2.157-6.568,2.059h0Z" fill="#fcd5c7" fill-rule="evenodd" stroke-width="0"/>
            <path id="br" data-name="path627" d="M49.336,65.416s.196,6.735,2.167,8.447c1.971,1.712,5.531.26,6.109-2.14.578-2.4-.775-7.692-.775-7.692,0,0-4.73-2.386-7.501,1.384Z" fill="#fcd5c7" fill-rule="evenodd" stroke-width="0"/>
            <path id="bs" data-name="path628" d="M76.783,67.548s-.758,5.337.981,7.283,5.033,1.059,5.908-1.249c.875-2.308.304-6.358.304-6.358,0,0-3.971-3.068-7.194.324h0Z" fill="#fcd5c7" fill-rule="evenodd" stroke-width="0"/>
            <path id="bt" data-name="path629" d="M126.129,114.812s-2.98-.894-4.172,0c-2.533,2.98-3.576,4.172-2.98,5.661.596,1.49.298,2.384,1.788,1.49s4.321-4.619,5.363-7.151h0Z" fill="#fcd5c7" fill-rule="evenodd" stroke-width="0"/>
          </g>
          <path id="bu" data-name="path630" d="M29.245,226.078s35.556-16.873,72.718-4.962c6.362,84.301,14.672,104.768,16.675,188.897H19.538c.754-45.963,11.686-111.164,11.598-112.748-.953-17.152-17.614-57.847-1.892-71.187h0Z" fill="#536c53" stroke-width="0"/>
          <path id="bv" data-name="path642" d="M57.258,391.989c-15.05.059-28.328.614-37.072,1.469-.096,1.684-.176,3.344-.253,5.002,13.547-1.39,40.573-2.028,66.825-1,11.035.432,21.865,1.177,31.573,2.25-.053-1.65-.093-3.412-.151-5.012-9.687-1.049-20.37-1.772-31.228-2.197-10.061-.394-20.208-.549-29.694-.512Z" fill="#445944" stroke-width="0"/>
          <path id="bw" data-name="path641" d="M56.582,367.78c-11.714.119-23.423,1.057-34.675,3.192-.16,1.723-.319,3.422-.467,5.149,23.907-4.768,50.506-3.849,74.719-1.159.11.013,2.821.646,5.903,1.522,3.083.875,6.909,2.009,10.644,3.115,1.805.534,3.221.938,4.892,1.428-.09-1.822-.197-3.493-.294-5.253-1.137-.336-2.004-.582-3.188-.932-3.735-1.106-7.57-2.243-10.697-3.131s-5.172-1.51-6.713-1.681c-12.902-1.434-26.514-2.389-40.124-2.25Z" fill="#445944" stroke-width="0"/>
          <path id="bx" data-name="path640" d="M80.867,350.923c-19.305-.251-38.742,1.711-57.491,5.481-.185,1.7-.344,3.457-.522,5.179,30.496-6.301,62.91-7.718,93.382-2.546-.129-1.727-.262-3.425-.398-5.102-11.482-1.882-23.2-2.86-34.971-3.013Z" fill="#445944" stroke-width="0"/>
          <path id="by" data-name="path639" d="M58.81,326.908c-10.672-.085-21.567.448-32.07,1.889-.24,1.803-.473,3.52-.718,5.422,25.701-3.76,54.551-2.047,76.116,1.034,1.106.158,5.779.742,11.015,1.507.384.056.756.125,1.144.184-.175-1.733-.367-3.407-.549-5.11-5.229-.763-10.093-1.377-10.909-1.493-12.826-1.832-28.179-3.307-44.03-3.433Z" fill="#445944" stroke-width="0"/>
          <path id="bz" data-name="path638" d="M95.36,309.367c-22.323.12-43.968,2.52-66.513,4.09-.231,1.614-.461,3.239-.714,5.045.174-.013.333-.041.508-.053,28.493-1.965,55.144-5.222,83.18-3.747-.197-1.643-.409-3.343-.61-4.991-5.334-.264-10.613-.371-15.852-.343Z" fill="#445944" stroke-width="0"/>
          <path id="ca" data-name="path637" d="M64.13,289.257c-3.318,0-6.647.044-9.952.133-8.352.223-16.441.77-23.848,1.618.309,1.777.533,3.415.671,4.918,7.189-.817,15.113-1.358,23.307-1.577,13.037-.348,26.527.019,37.886.94,6.874.558,12.84,1.371,17.534,2.281-.209-1.7-.417-3.515-.628-5.248-4.68-.823-10.253-1.469-16.506-1.977-8.676-.704-18.511-1.088-28.464-1.087Z" fill="#445944" stroke-width="0"/>
          <path id="cb" data-name="path636" d="M83.382,270.264c-19.069.018-37.689,2.288-56.442,4.767.367,1.632.734,3.292,1.089,4.861,21.526-2.839,42.646-5.334,64.271-4.502,5.98.23,10.238,1.833,15.256,3.91-.22-1.891-.435-3.621-.655-5.575-4.331-1.694-8.714-3.075-14.409-3.294-3.05-.117-6.086-.17-9.11-.167Z" fill="#445944" stroke-width="0"/>
          <path id="cc" data-name="path635" d="M77.623,252.125c-17.872-.007-36.089,2.339-53.072,6.258-.296.068-.561.154-.853.224.251,1.632.529,3.266.834,4.908.389-.097.73-.207,1.134-.3,22.196-5.122,46.571-7.484,69.185-5.33,2.685.256,6.602,1.508,10.642,2.776-.18-1.744-.361-3.575-.541-5.379-3.313-1.054-6.61-2.05-9.63-2.338-5.822-.554-11.742-.818-17.7-.82Z" fill="#445944" stroke-width="0"/>
          <path id="cd" data-name="path634" d="M79.457,236.557c-19.306.159-38.878,4.047-56.889,9.805.025,1.666.113,3.371.263,5.112,25.725-8.355,54.744-12.687,81.016-7.843-.156-1.718-.312-3.397-.467-5.173-7.835-1.361-15.852-1.968-23.923-1.901Z" fill="#445944" stroke-width="0"/>
        </g>
        <g id="ce" data-name="Raised hand">
          <g id="cf" data-name="g648">
            <path id="cg" data-name="path643" d="M213.259,140.174s-3.822-3.907-6.482-1.783c-2.659,2.124-2.538,2.528-1.947,5.211.591,2.683,2.312,10.197,3.235,12.889.924,2.692,4.876,21.466,7.104,26.904,2.227,5.438,4.587,24.593,6.517,32.096,1.93,7.503,7.418,17.475,7.155,26.619-.263,9.144-12.573,51.775-12.573,51.775,0,0,27.866,18.826,53.865,3.838-1.082-45.71,1.801-65.73,8.127-74.185,6.326-8.455,18.868-22.132,20.32-28.909,1.452-6.777,4.647-14.844,5.31-17.905s.643-6.459,2.35-9.657c1.707-3.198,4.341-4.18,3.15-6.786-1.191-2.607-6.495-2.551-11.618,2.156-5.122,4.707-6.746,13.418-6.746,13.418,0,0-3.126,7.816-6.568,11.38-1.769,1.831-3.923-.195-3.438-8.001.485-7.806,2.592-26.874,3.947-39.238,1.355-12.364,1.309-21.847-1.597-23.62-2.906-1.773-6.645-1.935-8.946,1.497-1.509,2.116-1.931,12.366-2.992,18.685s-2.651,15.272-3.16,18.812c-.51,3.539-1.976,14.768-4.04,14.47.297-20.88-1.189-29.372-1.496-37.695-.307-8.323-2.463-20.524-3.852-22.38-1.389-1.856-6.126-4.495-10.831.999-1.33,1.916.04,20.627-.219,26.611s.502,22.65.582,26.274.688,6.722-2.094,7.225c-2.782.503-4.142-7.821-5.988-14.861-1.846-7.039-5.33-19.432-6.357-24.848-1.026-5.416-.722-13.801-5.061-15.028s-7.122.329-8.074,3.805c-.952,3.475,2.543,25.202,3.378,31.945.835,6.743,4.573,18.42,4.359,20.948s-3.041,2.148-3.824-.807c-.783-2.955-2.495-10.802-5.758-17.959-3.264-7.157-3.817-11.172-5.74-13.893h0Z" fill="#ed7058" fill-rule="evenodd" stroke-width="0"/>
            <path id="ch" data-name="path644" d="M204.315,141.884c.798-2.338,3.227-2.548,5.046-.973.784,1.873,1.488,5.606.737,6.493-.751.887-2.485,1.727-4.513.188-.568-1.173-1.27-5.708-1.27-5.708Z" fill="#fcd5c7" fill-rule="evenodd" stroke-width="0"/>
            <path id="ci" data-name="path645" d="M220.948,119.617s-.232,5.531,1.694,7.294,4.783.491,5.423-1.893c.64-2.384-.322-6.502-.322-6.502,0,0-4.447-2.819-6.795,1.102h0Z" fill="#fcd5c7" fill-rule="evenodd" stroke-width="0"/>
            <path id="cj" data-name="path646" d="M249.815,109.578s-.765,6.695.941,8.67c1.707,1.975,5.438,1.046,6.352-1.247.914-2.293.329-7.723.329-7.723,0,0-4.342-3.036-7.622.301Z" fill="#fcd5c7" fill-rule="evenodd" stroke-width="0"/>
            <path id="ck" data-name="path647" d="M276.677,115.599s-1.511,5.174-.067,7.349,4.831,1.766,6.026-.394c1.195-2.16,1.207-6.25,1.207-6.25,0,0-3.493-3.602-7.167-.705h0Z" fill="#fcd5c7" fill-rule="evenodd" stroke-width="0"/>
            <path id="cl" data-name="path648" d="M310.019,161.304s-3.069-.507-4.138.531c-2.133,3.278-3.015,4.593-2.234,5.995s.599,2.326,1.963,1.25c1.364-1.076,3.697-5.131,4.409-7.776Z" fill="#fcd5c7" fill-rule="evenodd" stroke-width="0"/>
          </g>
          <path id="cm" data-name="path658" d="M213.932,274.713s-4.81-12.133-.864-15.463c3.946-3.331,53.816-10.943,59.812-9.278,5.997,1.665,1.811,17.604,1.811,17.604l-60.759,7.137Z" fill="#8a0" stroke-width="0"/>
          <path id="cn" data-name="path649" d="M208.606,271.834s61.778-19.708,73.28-4.962c8.589,11.011.966,60.217,2.373,77.32,1.089,13.238,1.364,29.115-1.923,65.821h-99.1c5.964-45.963,19.1-65.409,19.192-66.992.991-17.152-11.057-57.847,6.177-71.187h0Z" fill="#fdb93a" stroke-width="0"/>
          <path id="co" data-name="path663" d="M208.606,271.834s61.778-19.708,73.28-4.962c8.589,11.011.966,60.217,2.373,77.32,1.089,13.238,1.364,29.115-1.923,65.821h-99.1c5.964-45.963,19.1-65.409,19.192-66.992.991-17.152-11.057-57.847,6.177-71.187h0Z" fill="#fdb93a" stroke-width="0"/>
          <path id="cp" data-name="path664" d="M253.557,285.358c-3.159,0-6.01,2.56-6.368,5.719,0,0,0,0,0,0-.358,3.159,1.912,5.72,5.071,5.72,0,0,0,0,0,0,3.159,0,6.01-2.56,6.368-5.719,0,0,0,0,0,0,.358-3.159-1.912-5.72-5.071-5.72h0ZM235.314,286.032c-3.159,0-6.01,2.56-6.368,5.719,0,0,0,0,0,0-.358,3.159,1.912,5.72,5.071,5.72,0,0,0,0,0,0,3.158-.001,6.008-2.562,6.366-5.72.358-3.158-1.911-5.719-5.069-5.72ZM270.227,286.705c-3.159,0-6.01,2.561-6.368,5.719,0,0,0,0,0,0-.358,3.159,1.912,5.72,5.071,5.72h0c3.159,0,6.01-2.56,6.368-5.719h0c.358-3.159-1.912-5.72-5.071-5.72h0ZM217.589,288.051c-3.159,0-6.01,2.56-6.368,5.719,0,0,0,0,0,0-.357,3.158,1.913,5.718,5.072,5.718,3.158,0,6.009-2.56,6.368-5.718.358-3.159-1.912-5.72-5.071-5.72,0,0,0,0,0,0ZM201.808,290.742c-.707.014-1.42.159-2.102.426-.393,3.444-.489,7.091-.41,10.817.392.11.8.176,1.216.196,3.159,0,6.01-2.56,6.368-5.719,0,0,0,0,0,0,.358-3.159-1.912-5.72-5.071-5.72h0,0ZM286.029,290.88c-2.808.43-5.12,2.789-5.471,5.581-.358,3.159,1.912,5.72,5.071,5.72,0,0,0,0,0,0,.057-.002.115-.006.172-.01.15-3.868.24-7.668.227-11.29h0Z" fill="#8a0" stroke-width="0"/>
          <path id="cq" data-name="path666" d="M248.615,302.073c-2.78-.001-5.657.101-8.619.326-18.633,1.421-32.345,3.82-40.438,5.524.105,1.624.226,3.244.371,4.863,7.828-1.657,21.314-4.026,39.888-5.442,21.003-1.602,37.379,3.297,45.407,6.425.102-1.779.184-3.575.276-5.371-7.281-2.632-19.186-5.914-34.138-6.289-.905-.023-1.821-.036-2.748-.037h0Z" fill="#8a0" stroke-width="0"/>
          <circle id="cr" data-name="circle698" cx="227.063" cy="241.706" r="4.29" fill="#6f4f64" stroke-width="0"/>
          <circle id="cs" data-name="circle699" cx="234.465" cy="239.351" r="4.29" fill="#6f4f64" stroke-width="0"/>
          <circle id="ct" data-name="circle700" cx="242.203" cy="237.837" r="4.29" fill="#6f4f64" stroke-width="0"/>
          <circle id="cu" data-name="circle701" cx="249.773" cy="237.669" r="4.29" fill="#6f4f64" stroke-width="0"/>
          <circle id="cv" data-name="circle702" cx="257.679" cy="238.173" r="4.29" fill="#6f4f64" stroke-width="0"/>
          <circle id="cw" data-name="circle703" cx="265.753" cy="239.687" r="4.29" fill="#6f4f64" stroke-width="0"/>
          <circle id="cx" data-name="path698" cx="272.482" cy="242.715" r="4.29" fill="#6f4f64" stroke-width="0"/>
        </g>
        <g id="cy" data-name="Raised hand">
          <g id="cz" data-name="g672">
            <path id="da" data-name="path667" d="M508.195,135.584c1.276-2.642,3.116-3.996,6.352-3.218,3.31.796,2.654,2.327,2.556,5.073-.098,2.745-.438,10.446-.862,13.261-.424,2.815-2.122,26.908-3.144,32.695-1.554,8.803-4.587,24.593-6.517,32.096-1.93,7.503-7.418,17.475-7.155,26.619.263,9.144,12.573,51.775,12.573,51.775,0,0-27.866,18.826-53.865,3.838,1.082-45.71-1.801-65.73-8.127-74.185-6.326-8.455-18.868-22.132-20.32-28.909-1.452-6.777-4.647-14.844-5.31-17.905s-.643-6.459-2.35-9.657c-1.707-3.198-4.341-4.18-3.15-6.786,1.191-2.607,6.495-2.551,11.618,2.156,5.122,4.707,6.746,13.418,6.746,13.418,0,0,3.126,7.816,6.568,11.38,1.769,1.831,3.923-.195,3.438-8.001-.485-7.806-.443-27.516-.762-39.95-.318-12.434.519-21.88,3.562-23.404,3.043-1.524,6.784-1.374,8.79,2.238,1.327,2.234.893,12.484,1.422,18.87.529,6.386,1.367,15.44,1.58,19.01.213,3.569.131,14.14,2.196,13.843-.297-20.88,1.189-29.372,1.496-37.695.307-8.323,2.463-20.524,3.852-22.38,1.389-1.856,6.126-4.495,10.831.999,1.33,1.916-.04,20.627.219,26.611s-.502,22.65-.582,26.274c-.08,3.624-.688,6.722,2.094,7.225,2.782.503,1.921-7.578,2.47-14.835.549-7.257,1.745-20.074,1.78-25.586.035-5.512-1.774-13.706,2.273-15.694,4.047-1.988,7.065-.958,8.627,2.289,1.562,3.247,2.036,25.248,2.428,32.031.392,6.783-1.182,18.942-.517,21.39s3.378,1.565,3.616-1.482c.238-3.048.509-11.074,2.432-18.703,1.922-7.628,1.697-11.699,3.145-14.699h0Z" fill="#6e3124" fill-rule="evenodd" stroke-width="0"/>
            <path id="db" data-name="path668" d="M517.182,134.288c-1.206-2.156-3.633-1.925-5.138-.048-.434,1.984-.455,5.782.444,6.519s2.755,1.252,4.473-.628c.347-1.256.221-5.843.221-5.843h0Z" fill="#fcd5c7" fill-rule="evenodd" stroke-width="0"/>
            <path id="dc" data-name="path669" d="M496.595,115.402s1.224,5.399-.353,7.48c-1.576,2.081-4.616,1.343-5.675-.886-1.059-2.23-.854-6.454-.854-6.454,0,0,3.867-3.574,6.882-.139h0Z" fill="#fcd5c7" fill-rule="evenodd" stroke-width="0"/>
            <path id="dd" data-name="path670" d="M478.451,109.578s.765,6.695-.941,8.67c-1.707,1.975-5.438,1.046-6.352-1.247-.914-2.293-.329-7.723-.329-7.723,0,0,4.342-3.036,7.622.301Z" fill="#fcd5c7" fill-rule="evenodd" stroke-width="0"/>
            <path id="de" data-name="path671" d="M456.78,115.664s1.074,5.282-.547,7.329c-1.621,2.046-4.961,1.357-5.972-.895-1.011-2.252-.682-6.329-.682-6.329,0,0,3.782-3.298,7.201-.104Z" fill="#fcd5c7" fill-rule="evenodd" stroke-width="0"/>
            <path id="df" data-name="path672" d="M418.247,161.304s3.069-.507,4.138.531c2.133,3.278,3.015,4.593,2.234,5.995s-.599,2.326-1.963,1.25c-1.364-1.076-3.697-5.131-4.409-7.776Z" fill="#fcd5c7" fill-rule="evenodd" stroke-width="0"/>
          </g>
          <path id="dg" data-name="path675" d="M512.595,271.834s-61.778-19.708-73.28-4.962c-8.589,11.011-.966,60.217-2.373,77.32-1.089,13.238-1.364,29.115,1.923,65.821h99.1c-5.964-45.963-5.079-71.398-5.171-72.982-.991-17.152-2.964-51.857-20.198-65.197h0Z" fill="#fdb93a" stroke-width="0"/>
          <path id="dh" data-name="path677" d="M467.498,253.397s-27.588-.673-30.279,9.42c-2.691,10.093-8.075,41.045-4.71,49.12,3.364,8.075,90.783,7.753,94.82-4.359,4.037-12.112-1.963-45.434-6.673-51.49-4.71-6.056-39.027-4.71-53.157-2.692Z" fill="#659bbe" stroke-width="0"/>
        </g>
        <g id="di" data-name="Raised hand">
          <g id="dj" data-name="g683">
            <path id="dk" data-name="path678" d="M505.03,108.555s-5.214-1.639-6.555,1.49c-1.341,3.129-1.043,3.427.745,5.512,1.788,2.086,6.853,7.896,8.939,9.833,2.086,1.937,12.068,12.962,15.047,18.027,2.98,5.065,8.045,23.688,11.025,30.84,2.98,7.151,9.833,16.239,10.876,25.327,1.043,9.088-5.065,53.038-5.065,53.038,0,0,30.264,14.663,53.862-3.878-7.585-45.089-7.585-65.316-2.528-74.586,5.057-9.271,14.749-21.491,17.066-28.022,2.318-6.532,6.532-14.117,7.585-17.066,1.053-2.95,1.475-6.321,3.582-9.271,2.107-2.95,4.846-3.582,4.003-6.321s-6.11-3.371-11.799.632c-5.689,4.003-8.428,12.431-8.428,12.431,0,0-8.006,12.431-10.324,13.485-2.318,1.053-4.635-2.318-5.267-10.113-.632-7.796-1.264-26.969-1.686-39.4-.421-12.431-1.818-21.81-4.947-23.151-3.129-1.341-6.853-.968-8.641,2.756-1.192,2.309-.149,12.515-.298,18.921-.149,6.406-.447,15.494-.447,19.07s.149,14.898-1.937,14.898c-2.682-20.709-5.363-28.903-6.853-37.097-1.49-8.194-5.363-19.964-7.002-21.603-1.639-1.639-6.704-3.576-10.578,2.533-1.043,2.086,2.98,20.411,3.576,26.37.596,5.959,3.725,22.348,4.321,25.923s1.639,6.555-1.043,7.449c-2.682.894-5.214-7.151-8.045-13.856-2.831-6.704-8.045-18.474-9.833-23.688-1.788-5.214-2.682-13.558-7.151-14.153-4.47-.596-7.002,1.341-7.449,4.916s6.108,24.582,7.896,31.138,7.151,17.58,7.3,20.113-2.682,2.384-4.767.149c-2.086-2.235-7.3-8.343-13.558-13.111s-8.641-8.045-11.621-9.535h0Z" fill="#c6746b" fill-rule="evenodd" stroke-width="0"/>
            <path id="dl" data-name="path679" d="M497.954,114.286c-.401-2.438,1.642-3.77,3.988-3.24,1.576,1.281,3.959,4.239,3.716,5.375s-1.375,2.696-3.889,2.297c-1.054-.765-3.815-4.431-3.815-4.431Z" fill="#fcd5c7" fill-rule="evenodd" stroke-width="0"/>
            <path id="dm" data-name="path680" d="M519.837,79.467s.559,5.508,2.716,6.978,4.804-.196,5.098-2.647c.294-2.451-1.245-6.39-1.245-6.39,0,0-4.804-2.157-6.568,2.059h0Z" fill="#fcd5c7" fill-rule="evenodd" stroke-width="0"/>
            <path id="dn" data-name="path681" d="M546.977,65.416s.196,6.735,2.167,8.447c1.971,1.712,5.531.26,6.109-2.14.578-2.4-.775-7.692-.775-7.692,0,0-4.73-2.386-7.501,1.384Z" fill="#fcd5c7" fill-rule="evenodd" stroke-width="0"/>
            <path id="do" data-name="path682" d="M574.424,67.548s-.758,5.337.981,7.283c1.74,1.946,5.033,1.059,5.908-1.249.875-2.308.304-6.358.304-6.358,0,0-3.971-3.068-7.194.324h0Z" fill="#fcd5c7" fill-rule="evenodd" stroke-width="0"/>
            <path id="dp" data-name="path683" d="M623.771,114.812s-2.98-.894-4.172,0c-2.533,2.98-3.576,4.172-2.98,5.661.596,1.49.298,2.384,1.788,1.49,1.49-.894,4.321-4.619,5.363-7.151h0Z" fill="#fcd5c7" fill-rule="evenodd" stroke-width="0"/>
          </g>
          <path id="dq" data-name="path684" d="M527.559,203.2s35.556-16.873,72.718-4.962c6.362,84.301,13.999,127.646,16.003,211.775h-99.1c.754-45.963,11.686-111.164,11.598-112.748-.953-17.152-16.941-80.724-1.219-94.065h0Z" fill="#6f4f64" stroke-width="0"/>
          <path id="dr" data-name="path696" d="M615.481,385.475c-.629.161-1.698.443-1.885.477-30.307,5.51-60.876,5.068-91.511,3.366-.307-.017-2.977.007-4.002.016-.462,7.12-.796,14.103-.904,20.678h99.101c-.205-8.607-.484-16.697-.8-24.537h0Z" fill="#5b3c52" stroke-width="0"/>
          <path id="ds" data-name="path695" d="M612.558,335.771c-.475.107-1.372.345-1.654.39-20.199,3.189-41.549,1.094-61.905,2.019-2.686.122-15.343,1.897-26.249,3.392-.844,6.863-1.646,14.082-2.407,21.541,13.802.335,64.418.098,93.841-3.806-.483-8.134-1.043-15.885-1.626-23.536Z" fill="#5b3c52" stroke-width="0"/>
          <path id="dt" data-name="path694" d="M607.136,275.373c-25.968.22-64.101,5.37-72.267,6.958-1.961.381-4.937.871-7.864,1.416.872,5.522,1.601,10.435,1.773,13.518.01.166-.491,3.491-.7,4.963,23.852-6.994,55.863-11.61,80.892-7.813-.592-6.201-1.214-12.689-1.834-19.042Z" fill="#5b3c52" stroke-width="0"/>
          <path id="du" data-name="path693" d="M577.775,222.852c-12.787.059-25.634,1.554-36.85,3.631-6.826,1.264-13.593,3.12-20.176,5.471.153,6.581.772,13.628,1.63,20.684,24.852-5.117,70.882-7.781,81.905-7.356-.615-6.614-1.226-13.322-1.838-20.423-7.881-1.445-16.258-2.046-24.672-2.007Z" fill="#5b3c52" stroke-width="0"/>
        </g>
        <g id="dv" data-name="Raised hand">
          <g id="dw" data-name="g708">
            <path id="dx" data-name="path703" d="M80.328,198.041s-3.822-3.907-6.482-1.783c-2.659,2.124-2.538,2.528-1.947,5.211.591,2.683,2.312,10.197,3.235,12.889.924,2.692,4.876,21.466,7.104,26.904,2.227,5.438,4.587,24.593,6.517,32.096,1.93,7.503,7.418,17.475,7.155,26.619-.263,9.144-12.573,51.775-12.573,51.775,0,0,27.866,18.826,53.865,3.838-1.082-45.71,1.801-65.73,8.127-74.185,6.326-8.455,18.868-22.132,20.32-28.909,1.452-6.777,4.647-14.844,5.31-17.905s.643-6.459,2.35-9.657c1.707-3.198,4.341-4.18,3.15-6.786-1.191-2.607-6.495-2.551-11.618,2.156-5.122,4.707-6.746,13.418-6.746,13.418,0,0-3.126,7.816-6.568,11.38-1.769,1.831-3.923-.195-3.438-8.001.485-7.806,2.592-26.874,3.947-39.238,1.355-12.364,1.309-21.847-1.597-23.62-2.906-1.773-6.645-1.935-8.946,1.497-1.509,2.116-1.931,12.366-2.992,18.685s-2.651,15.272-3.16,18.812-1.976,14.768-4.04,14.47c.297-20.88-1.189-29.372-1.496-37.695s-2.463-20.524-3.852-22.38c-1.389-1.856-6.126-4.495-10.831.999-1.33,1.916.04,20.627-.219,26.611s.502,22.65.582,26.274.688,6.722-2.094,7.225c-2.782.503-4.142-7.821-5.988-14.861-1.846-7.039-5.33-19.432-6.357-24.848-1.026-5.416-.722-13.801-5.061-15.028-4.339-1.227-7.122.329-8.074,3.805s2.543,25.202,3.378,31.945c.835,6.743,4.573,18.42,4.359,20.948s-3.041,2.148-3.824-.807c-.783-2.955-2.495-10.802-5.758-17.959-3.264-7.157-3.817-11.172-5.74-13.893h0Z" fill="#f68b6f" fill-rule="evenodd" stroke-width="0"/>
            <path id="dy" data-name="path704" d="M71.384,199.751c.798-2.338,3.227-2.548,5.046-.973.784,1.873,1.488,5.606.737,6.493-.751.887-2.485,1.727-4.513.188-.568-1.173-1.27-5.708-1.27-5.708Z" fill="#fcd5c7" fill-rule="evenodd" stroke-width="0"/>
            <path id="dz" data-name="path705" d="M88.017,177.484s-.232,5.531,1.694,7.294,4.783.491,5.423-1.893c.64-2.384-.322-6.502-.322-6.502,0,0-4.447-2.819-6.795,1.102h0Z" fill="#fcd5c7" fill-rule="evenodd" stroke-width="0"/>
            <path id="ea" data-name="path706" d="M116.884,167.445s-.765,6.695.941,8.67c1.707,1.975,5.438,1.046,6.352-1.247.914-2.293.329-7.723.329-7.723,0,0-4.342-3.036-7.622.301Z" fill="#fcd5c7" fill-rule="evenodd" stroke-width="0"/>
            <path id="eb" data-name="path707" d="M143.747,173.467s-1.511,5.174-.067,7.349,4.831,1.766,6.026-.394c1.195-2.16,1.207-6.25,1.207-6.25,0,0-3.493-3.602-7.167-.705h0Z" fill="#fcd5c7" fill-rule="evenodd" stroke-width="0"/>
            <path id="ec" data-name="path708" d="M177.088,219.172s-3.069-.507-4.138.531c-2.133,3.278-3.015,4.593-2.234,5.995s.599,2.326,1.963,1.25c1.364-1.076,3.697-5.131,4.409-7.776Z" fill="#fcd5c7" fill-rule="evenodd" stroke-width="0"/>
          </g>
          <path id="ed" data-name="path710" d="M71.638,334.748c8.172-12.514,26.37-9.071,39.581-10.282,16.162-1.481,31.408-7.841,37.737.274,8.451,10.835,2.049,44.342.45,85.274H50.306c6.703-37.272,11.613-60.383,21.332-75.265Z" fill="#7fcac2" stroke-width="0"/>
          <path id="ee" data-name="path720" d="M134.48,320.939c-3.216.33-6.75.964-10.46,1.63-2.41,24.224-14.892,33.231-35.991,45.89-6.294,3.776-12.458,7.792-18.84,11.439-4.951,2.829-10.237,5.84-15.003,9.414-.972,4.949-1.967,10.216-2.986,15.815,2.833-4.382,6.455-8.227,10.923-11.099,2.078-1.336,4.004-1.237,6.056-2.356,18.116-9.882,47.002-21.7,56.858-40.709,5.066-9.771,8.374-18.289,9.42-29.27.015-.156.011-.552.022-.755ZM103.793,324.776c-2.169.031-4.366.071-6.589.126-5.091,11.67-13.644,22.405-24.988,27.744-3.309,1.557-6.714,2.729-10.167,3.719-.977,3.115-1.91,6.447-2.817,9.993.735-.251,1.321-.467,1.546-.592,11.591-6.439,22.67-11.415,31.96-21.194.325-.342,5.263-4.972,6.393-6.729,2.621-4.076,3.824-8.517,4.661-13.067h0ZM152.953,355.986c-10.351,10.568-25.577,18.107-38.345,25.257-8.496,4.758-16.818,9.893-24.56,15.813-4.366,3.338-8.985,7.824-12.098,12.957h12.202c1.065-2.116,2.373-3.992,3.933-5.218,7.304-5.739,25.4-16.621,34.653-19.513,7.682-2.401,15.635-4.269,22.728-7.831.597-7.728,1.166-15.008,1.487-21.465ZM150.634,388.862c-8.613,3.959-16.89,9.345-22.905,15.933-1.569,1.719-3.125,3.458-4.657,5.218h13.014c.404-.217.804-.434,1.22-.649,3.9-2.017,8.087-2.984,12.306-3.825.275-5.77.637-11.279,1.022-16.678Z" fill="#62bfb2" stroke-width="0"/>
        </g>
        <g id="ef" data-name="Raised hand">
          <g id="eg" data-name="g672-7">
            <path id="eh" data-name="path667-0" d="M336.756,185.971c-1.276-2.642-3.116-3.996-6.352-3.218-3.31.796-2.654,2.327-2.556,5.073.098,2.745.438,10.446.862,13.261.424,2.815,2.122,26.908,3.144,32.695,1.554,8.803,4.587,24.593,6.517,32.096,1.93,7.503,7.418,17.475,7.155,26.619-.263,9.144-12.573,51.775-12.573,51.775,0,0,27.866,18.826,53.865,3.838-1.082-45.71,1.801-65.73,8.127-74.185,6.326-8.455,18.868-22.132,20.32-28.909,1.452-6.777,4.647-14.844,5.31-17.905s.643-6.459,2.35-9.657c1.707-3.198,4.341-4.18,3.15-6.786-1.191-2.607-6.495-2.551-11.618,2.156-5.122,4.707-6.746,13.418-6.746,13.418,0,0-3.126,7.816-6.568,11.38-1.769,1.831-3.923-.195-3.438-8.001.485-7.806.443-27.516.762-39.95.318-12.434-.519-21.88-3.562-23.404-3.043-1.524-6.784-1.374-8.79,2.238-1.327,2.234-.893,12.484-1.422,18.87-.529,6.386-1.367,15.44-1.58,19.01-.213,3.569-.131,14.14-2.196,13.843.297-20.88-1.189-29.372-1.496-37.695-.307-8.323-2.463-20.524-3.852-22.38-1.389-1.856-6.126-4.495-10.831.999-1.33,1.916.04,20.627-.219,26.611s.502,22.65.582,26.274.688,6.722-2.094,7.225c-2.782.503-1.921-7.578-2.47-14.835-.549-7.257-1.745-20.074-1.78-25.586-.035-5.512,1.774-13.706-2.273-15.694s-7.065-.958-8.627,2.289c-1.562,3.247-2.036,25.248-2.428,32.031-.392,6.783,1.182,18.942.517,21.39s-3.378,1.565-3.616-1.482c-.238-3.048-.509-11.074-2.432-18.703-1.922-7.628-1.697-11.699-3.145-14.699h0Z" fill="#e7b39d" fill-rule="evenodd" stroke-width="0"/>
            <path id="ei" data-name="path668-7" d="M327.769,184.675c1.206-2.156,3.633-1.925,5.138-.048.434,1.984.455,5.782-.444,6.519s-2.755,1.252-4.473-.628c-.347-1.256-.221-5.843-.221-5.843h0Z" fill="#fcd5c7" fill-rule="evenodd" stroke-width="0"/>
            <path id="ej" data-name="path669-4" d="M348.357,165.789s-1.224,5.399.353,7.48c1.576,2.081,4.616,1.343,5.675-.886,1.059-2.23.854-6.454.854-6.454,0,0-3.867-3.574-6.882-.139h0Z" fill="#fcd5c7" fill-rule="evenodd" stroke-width="0"/>
            <path id="ek" data-name="path670-0" d="M366.5,159.964s-.765,6.695.941,8.67c1.707,1.975,5.438,1.046,6.352-1.247.914-2.293.329-7.723.329-7.723,0,0-4.342-3.036-7.622.301Z" fill="#fcd5c7" fill-rule="evenodd" stroke-width="0"/>
            <path id="el" data-name="path671-6" d="M388.171,166.051s-1.074,5.282.547,7.329c1.621,2.046,4.961,1.357,5.972-.895,1.011-2.252.682-6.329.682-6.329,0,0-3.782-3.298-7.201-.104Z" fill="#fcd5c7" fill-rule="evenodd" stroke-width="0"/>
            <path id="em" data-name="path672-4" d="M426.704,211.691s-3.069-.507-4.138.531c-2.133,3.278-3.015,4.593-2.234,5.995s.599,2.326,1.963,1.25c1.364-1.076,3.697-5.131,4.409-7.776Z" fill="#fcd5c7" fill-rule="evenodd" stroke-width="0"/>
          </g>
          <g id="en" data-name="g736">
            <path id="eo" data-name="path736" d="M333.095,326.575s2.855-7.137,2.855-18.556.952-17.129,11.419-17.604c10.468-.476,42.822,4.758,45.676,9.04s-.952,11.895-.952,18.08,1.427,17.604,1.427,17.604c0,0-37.588-14.274-60.426-8.564h0Z" fill="#ed794a" stroke-width="0"/>
            <path id="ep" data-name="path727" d="M394.878,326.947s-30.504-16.873-62.386-4.962c-7.907,11.028-14.306,64.823-14.306,88.028h85.02c0-13.758,5.777-57.105-8.327-83.066h0Z" fill="#a0b79b" stroke-width="0"/>
          </g>
        </g>
        <g id="eq" data-name="Raised hand">
          <g id="er" data-name="g777">
            <path id="es" data-name="path759" d="M690.446,97.252c-4.082-1.042-5.732-1.823-9.162,4.039-3.43,5.863-4.384,17.414-4.948,21.365-.564,3.952-.867,19.02-.867,19.02,0,0-4.169-6.253-8.295-4.819-4.125,1.433-2.431,6.514-3.039,9.554-.608,3.04-2.214,9.944-2.647,18.89-.433,8.946.002,19.194,2.174,26.402,7.331,24.332,13.117,21.497,15.277,28.679,1.94,6.449.997,57.841.997,57.841,0,0,35.03,13.202,53.365-1.594-4.059-35.498-5.774-53.541-4.72-60.739,1.698-11.592,4.733-24.404,5.218-41.671.231-8.213-2.267-17.045-3.05-28.944-.783-11.898.692-27.184-1.566-30.571-2.258-3.387-5.776-3.864-7.99-.694-2.214,3.17-2.605,8.512-2.605,8.512,0,0-.61-24.057-3.173-28.182-2.562-4.125-6.644-5.167-9.858-1.519-2.78-9.814-7.34-9.596-10.683-7.555-3.344,2.041-4.559,8.121-4.428,11.986h0Z" fill="#f47452" fill-rule="evenodd" stroke-width="0"/>
            <path id="et" data-name="path760" d="M674.73,140.852s4.083,10.074,3.258,15.329c-.825,5.254,1.044,23.015.523,24.491-.521,1.476-3.995,5.298-3.995,5.298" fill="none" stroke="#dd573c" stroke-linecap="round" stroke-linejoin="round"/>
            <path id="eu" data-name="path761" d="M690.62,97.513s1.26,7.252.566,12.984c-.694,5.732-.215,21.408-.996,26.446-.781,5.037.869,10.335-.259,12.593" fill="none" stroke="#dd573c" stroke-linecap="round" stroke-linejoin="round"/>
            <path id="ev" data-name="path762" d="M704.95,93.603s.131,12.897.479,17.934c.348,5.037-1.648,22.928-2.212,26.88-.564,3.952-1.259,8.555.566,10.726" fill="none" stroke="#dd573c" stroke-linecap="round" stroke-linejoin="round"/>
            <path id="ew" data-name="path763" d="M718.327,123.825s.348,9.553-.607,14.33-2.213,16.719.393,19.498" fill="none" stroke="#dd573c" stroke-linecap="round" stroke-linejoin="round"/>
            <path id="ex" data-name="path764" d="M685.163,180.578c9.501,4.222,17.591,12.185,18.855,22.291" fill="none" stroke="#dd573c" stroke-linecap="round" stroke-linejoin="round"/>
            <path id="ey" data-name="path765" d="M718.386,170.933c-1.712,1.552-3.447,3.438-4.605,5.466-3.226,5.646-5.119,12.826-6.385,19.161-.361,1.806-.915,8.639-1.228,6.141" fill="none" stroke="#dd573c" stroke-linecap="round" stroke-linejoin="round"/>
            <path id="ez" data-name="path766" d="M682.03,165.901c5.94-.732,27.013,2.509,34.821,1.532" fill="none" stroke="#dd573c" stroke-linecap="round" stroke-linejoin="round"/>
            <path id="fa" data-name="path767" d="M691.486,150.547c1.248.782,3.955,1.26,8.659,1.412" fill="none" stroke="#dd573c" stroke-linecap="round" stroke-linejoin="round"/>
            <path id="fb" data-name="path768" d="M707.392,152.45c.941.793,3.306,2.577,7.001,3.316" fill="none" stroke="#dd573c" stroke-linecap="round" stroke-linejoin="round"/>
            <path id="fc" data-name="path769" d="M705.914,113.515c1.955,1.949,4.56,2.189,7.124,2.701" fill="none" stroke="#dd573c" stroke-linecap="round" stroke-linejoin="round"/>
            <path id="fd" data-name="path770" d="M704.196,131.693c-.024,2.039,3.18,2.615,5.896,5.649" fill="none" stroke="#dd573c" stroke-linecap="round" stroke-linejoin="round"/>
            <path id="fe" data-name="path771" d="M718.996,127.945c.095,1.256,1.519,5.094,6.142,6.018" fill="none" stroke="#dd573c" stroke-linecap="round" stroke-linejoin="round"/>
            <path id="ff" data-name="path772" d="M717.831,143.36c1.822,2.558,4.813,3.496,7.308,3.377" fill="none" stroke="#dd573c" stroke-linecap="round" stroke-linejoin="round"/>
            <path id="fg" data-name="path773" d="M692.649,109.585c2.472,2.842,7.64,2.561,9.826,1.964" fill="none" stroke="#dd573c" stroke-linecap="round" stroke-linejoin="round"/>
            <path id="fh" data-name="path774" d="M692.343,128.685c1.785,3.681,5.415,1.219,7.799.92" fill="none" stroke="#dd573c" stroke-linecap="round" stroke-linejoin="round"/>
            <path id="fi" data-name="path775" d="M678.832,114.807c1.586,3.642,6.286,3.808,8.475,3.93" fill="none" stroke="#dd573c" stroke-linecap="round" stroke-linejoin="round"/>
            <path id="fj" data-name="path776" d="M678.526,130.712c.807,1.272,2.966,1.87,7.124,2.701" fill="none" stroke="#dd573c" stroke-linecap="round" stroke-linejoin="round"/>
            <path id="fk" data-name="path777" d="M677.362,158.901c.055,2.135-4.044,7.926-9.211,9.335" fill="none" stroke="#dd573c" stroke-linecap="round" stroke-linejoin="round"/>
          </g>
          <path id="fl" data-name="path779" d="M671.818,265.451s-8.085,4.437-10.107,12.611c-2.021,8.174,0,131.95,0,131.95h94.33v-103.692c0-18.216-6.738-35.732-20.887-42.271-23.583,0-63.336,1.401-63.336,1.401h0Z" fill="#b5c8cc" stroke-width="0"/>
          <path id="fm" data-name="path805" d="M712.337,274.188c-17.38-.104-34.765,1.69-50.924,6.315-.162,2.068-.28,5.379-.371,9.324.485-.13.769-.219,1.305-.365,24.65-6.723,57.407-10.397,82.789-4.757,2.64.587,5.26,1.061,7.876,1.522-1.092-3.344-2.495-6.475-4.192-9.33-11.86-1.613-24.166-2.635-36.482-2.709ZM715.611,293.474c-13.487-.117-26.96.727-40.417,2.65-4.938.705-9.673,1.74-14.303,3.229-.031,3.19-.034,6.942-.045,10.583,11.77-3.207,27.753-5.724,33.855-5.724,18.584,0,38.347-1.436,56.62,3.331,1.412.368,3.039.825,4.72,1.318v-2.54c0-3.094-.21-6.163-.602-9.167-6.71-1.313-13.165-2.242-15.537-2.458-8.101-.736-16.198-1.152-24.29-1.222ZM700.171,314.509c-7.094.05-14.483.764-20.696,2.072-6.155,1.296-12.506,2.901-18.648,4.739.008,4.395.034,8.919.059,13.526,14.369-4.81,28.684-6.844,45.709-6.844,7.893,0,17.693-1.049,25.694.475,8.526,1.624,15.982,4.492,23.752,7.554v-14.156c-15.716-3.34-38.205-6.028-43.736-6.719-3.726-.466-7.876-.676-12.133-.647ZM709.506,340.488c-17.289.051-35.787,2.262-48.554,6.346.034,4.317.085,7.546.126,11.756,24.626-6.647,67.466-4.306,85.961-1.089,1.866.325,5.229,1.718,9.002,3.453v-15.28c-6.861-1.01-13.745-1.902-16.139-2.446-8.293-1.885-19.079-2.773-30.396-2.739ZM712.779,368.444c-18.115,0-33.777.786-50.91,6.66-.205.07-.404.158-.608.231.045,3.771.083,8.328.126,11.641,3.212-.451,6.373-.696,9.047-.928,25.597-2.226,51.629-6.464,77.079-.475,2.719.64,5.642,1.346,8.527,2.042v-16.429c-14.638-2.48-30.577-2.742-43.261-2.742ZM720.268,395.009c-2.338-.013-4.675.013-7.011.08-17.371.496-34.789.529-51.693,4.853.054,3.623.147,10.071.147,10.071h94.33v-11.794c-11.806-2.027-23.793-3.142-35.773-3.209h0Z" fill="#163552" stroke-width="0"/>
        </g>
        <g id="fn" data-name="Raised hand">
          <path d="M668.67,393.644c-.035.968-.07,1.901-.123,2.799-.07,1.443-.176,2.799-.317,4.084-.035.334-.07.651-.106.968-.053.387-.106.774-.141,1.127-.106.634-.194,1.215-.299,1.795-.018.07-.035.141-.053.211-.035.194-.07.352-.106.528,0,.018-.018.018-.018.035-.106.475-.211.95-.334,1.373-.053.194-.106.387-.158.563-.123.405-.264.792-.405,1.144-.053.158-.106.317-.176.458-.211.475-.422.915-.651,1.285h-85.933c.317-3.696.651-7.446,1.003-11.23.81-8.907,1.707-17.972,2.711-27.142.915-8.255,1.901-16.563,2.992-24.924,1.091-8.449,2.288-16.933,3.591-25.4.37-2.464.757-4.929,1.162-7.393.546-3.415,1.091-6.83,1.69-10.209,1.426-.422,2.816-.792,4.207-1.127.352-.088.722-.176,1.074-.264,1.039-.246,2.077-.475,3.098-.687.387-.088.757-.158,1.144-.229,2.095-.422,4.154-.739,6.196-1.003,1.672-.211,3.327-.387,4.981-.51.158-.018.317-.035.475-.053.528-.035,1.074-.07,1.602-.088,1.127-.07,2.253-.123,3.38-.141,1.514-.035,3.028-.018,4.524.018.669.018,1.338.053,1.989.088.44.018.88.035,1.303.07.599.035,1.197.053,1.795.088.546.053,1.109.088,1.655.141,1.144.088,2.288.211,3.45.334.493.053.968.106,1.461.158,2.552.317,5.175.722,7.833,1.162.264.035.511.088.774.123,1.179.211,2.376.423,3.591.651.528.088,1.074.194,1.619.299,1.197.229,2.394.475,3.626.722.282.053.563.106.845.176,3.256.669,6.618,1.391,10.156,2.165-.07.458-.123.986-.158,1.549-.018.282-.018.634-.035.95,0,.282-.018.546-.018.845-.018.862,0,1.936.018,2.957.018.528.018.968.035,1.549.035,1.32.123,2.816.211,4.348.018.387.035.722.053,1.109.106,1.883.264,3.89.422,6.002.493,6.425,1.144,13.818,1.831,21.527.018.158.018.317.035.475.739,8.308,1.443,16.863,1.936,25.048.475,7.815.739,15.243.563,21.474Z" fill="#7a1630" stroke-width="0"/>
          <g id="fo" data-name="g756">
            <path id="fp" data-name="path738" d="M600.59,198.509s-2.744-6.666-7.528-6.407c-3.241.305-2.454,2.539-2.274,4.446.18,1.907-.354,8.496-1.717,10.356-1.364,1.859-2.792,5.072-1.513,14.568,1.279,9.496,2.871,24.349,5.996,30.979,3.125,6.63,12.624,11.505,14.673,23.045,2.049,11.54-3.197,45.693-3.197,45.693,0,0,28.098,14.471,49.517.913-.714-38.208,5.352-49.359,7.872-63.444,2.52-14.086,1.169-24.345-.398-36.892-1.567-12.547-6.277-48.263-7.345-51.432-1.068-3.169-6.386-4.495-8.878-.318-.537-7.739-2.391-18.239-3.632-21.2-1.241-2.961-7.494-4.006-10.189-.964-.997-5.484-4.224-6.046-7.638-5.532-3.414.514-5.704,2.749-6.28,11.94-1.462-4.286-8.181-2.114-9.761,2.554-1.58,4.669-5.629,22.938-6.493,29.078-.864,6.14-1.216,12.617-1.216,12.617h0Z" fill="#f68b6f" fill-rule="evenodd" stroke-width="0"/>
            <path id="fq" data-name="path739" d="M600.435,198.908c.251,2.669-.767,30.654-4.933,39.51" fill="none" stroke="#dd573c" stroke-linecap="round" stroke-linejoin="round"/>
            <path id="fr" data-name="path740" d="M618.01,154.746c-1.587,7.651-.29,17.338-1.086,23.183-.796,5.845.566,14.18.468,21.306-.098,7.126.127,17.683-1.402,21.867" fill="none" stroke="#dd573c" stroke-linecap="round" stroke-linejoin="round"/>
            <path id="fs" data-name="path741" d="M631.787,147.87c-.292.989,1.209,25.083,1.391,33.144s1.276,29.885,3.157,37.594" fill="none" stroke="#dd573c" stroke-linecap="round" stroke-linejoin="round"/>
            <path id="ft" data-name="path742" d="M645.834,170.397s1.764,14.644,1.839,21.561c.075,6.917.443,19,3.295,26.81" fill="none" stroke="#dd573c" stroke-linecap="round" stroke-linejoin="round"/>
            <path id="fu" data-name="path743" d="M590.504,194.255c1.694.656,4.484,2.842,5.058,6.052.574,3.21.007,5.848-1.438,6.392s-3.762.49-4.171-.967c-.409-1.458-.004-8.704.551-11.476h0Z" fill="#fcd5c7" fill-rule="evenodd" stroke-width="0"/>
            <path id="fv" data-name="path744" d="M610.198,154.998s-.372,6.155.698,7.414,6.122,1.463,6.29.36c.168-1.104.713-6.867.329-8.055s-3.81-2.905-7.318.281Z" fill="#fcd5c7" fill-rule="evenodd" stroke-width="0"/>
            <path id="fw" data-name="path745" d="M621.371,145.105c2.763-2.436,6.832-2.548,8.447.156.584,6.201.037,7.613-1.26,8.279-1.297.666-4.937,1.009-6.906-1.118-.262-1.335-.281-7.318-.281-7.318Z" fill="#fcd5c7" fill-rule="evenodd" stroke-width="0"/>
            <path id="fx" data-name="path746" d="M632.998,149.848c2.603-2.606,6.657-2.975,8.44-.379.976,6.152.519,7.595-.733,8.342-1.252.747-4.863,1.32-6.962-.678-.346-1.316-.744-7.285-.744-7.285h0Z" fill="#fcd5c7" fill-rule="evenodd" stroke-width="0"/>
            <path id="fy" data-name="path747" d="M647.284,170.319c1.743-2.229,4.524-2.48,5.795-.182.779,5.387.491,6.639-.357,7.269-.848.63-3.32,1.066-4.798-.714-.261-1.155-.64-6.372-.64-6.372h0Z" fill="#fcd5c7" fill-rule="evenodd" stroke-width="0"/>
            <path id="fz" data-name="path748" d="M608.649,175.631c1.972-.727,4.364-1.135,6.86.715" fill="none" stroke="#dd573c" stroke-linecap="round" stroke-linejoin="round"/>
            <path id="ga" data-name="path749" d="M604.798,197.309c2.926-2.168,8.291-1.883,10.512.322" fill="none" stroke="#dd573c" stroke-linecap="round" stroke-linejoin="round"/>
            <path id="gb" data-name="path750" d="M621.433,172.311c2.75-1.127,6.097-1.221,8.845.224" fill="none" stroke="#dd573c" stroke-linecap="round" stroke-linejoin="round"/>
            <path id="gc" data-name="path751" d="M621.511,194.465c2.598-2.089,7.8-1.913,9.772.14" fill="none" stroke="#dd573c" stroke-linecap="round" stroke-linejoin="round"/>
            <path id="gd" data-name="path752" d="M636.234,172.892c2.64-.407,5.49-.151,7.504,1.191" fill="none" stroke="#dd573c" stroke-linecap="round" stroke-linejoin="round"/>
            <path id="ge" data-name="path753" d="M636.856,194.927c2.428-1.073,7.035.392,8.761,2.376" fill="none" stroke="#dd573c" stroke-linecap="round" stroke-linejoin="round"/>
            <path id="gf" data-name="path754" d="M649.336,187.423c1.967-.307,3.714.259,5.444.953" fill="none" stroke="#dd573c" stroke-linecap="round" stroke-linejoin="round"/>
            <path id="gg" data-name="path755" d="M649.336,202.907c2.352-.279,5.289.273,7.028,1.668" fill="none" stroke="#dd573c" stroke-linecap="round" stroke-linejoin="round"/>
            <path id="gh" data-name="path756" d="M587.995,214.104c2.394-.441,4.572-.06,7.028.596" fill="none" stroke="#dd573c" stroke-linecap="round" stroke-linejoin="round"/>
          </g>
          <path id="gi" data-name="path800" d="M602.165,369.92c-7.141.454-13.568,1.097-18.597,1.713-1.008,9.179-1.91,18.251-2.723,27.158,6.776-1.288,14.582-2.596,18.946-2.725.635-8.464,1.529-17.752,2.374-26.147Z" fill="#7a1630" stroke-width="0"/>
          <path id="gj" data-name="path798" d="M623.094,394.467c5.802-.407,12.224-.757,18.94-.84,2.091-.026,4.215-.017,6.35.014-.126-6.216-.575-14.293-1.318-23.768-6.626-.39-14.327-.612-23.244-.59-.302,10.153-.521,17.784-.728,25.184h0Z" fill="#7a1630" stroke-width="0"/>
          <path id="gk" data-name="path792" d="M607.092,318.636c-6.238.638-12.027,1.627-16.947,2.686-1.297,8.458-2.495,16.938-3.592,25.4,5.318-1.294,11.813-2.759,18.338-3.961.723-7.629,1.455-15.759,2.201-24.125Z" fill="#7a1630" stroke-width="0"/>
          <path id="gl" data-name="path790" d="M644.784,342.468c-.457-7.127-.783-14.705-1.048-22.077-4.326-.806-8.637-1.468-12.792-1.905-1.842-.194-3.68-.33-5.51-.42-.195,5.404-.431,12.502-.738,22.306,5.069-.08,12.284.796,20.088,2.097Z" fill="#7a1630" stroke-width="0"/>
          <path id="gm" data-name="path803" d="M623.094,394.467c-.128,4.568-.386,13.036-.449,15.546h25.055c.056-2.036.162-3.945.371-5.408.325-2.272.411-6.078.312-10.964-2.135-.031-4.259-.04-6.35-.014-6.716.084-13.137.433-18.94.84h0Z" fill="#e7b39d" stroke-width="0"/>
          <path id="gn" data-name="path801" d="M599.791,396.066c-4.364.129-12.17,1.438-18.946,2.725-.344,3.769-.679,7.52-.991,11.221h19.144c.112-3.939.404-8.759.793-13.946Z" fill="#e7b39d" stroke-width="0"/>
          <path id="go" data-name="path795" d="M647.066,369.873c-.385-4.912-.838-10.137-1.373-15.703-.345-3.592-.644-7.563-.91-11.703-7.804-1.301-15.019-2.177-20.088-2.097-.319,10.162-.549,18.009-.873,28.913,8.917-.022,16.618.2,23.244.59Z" fill="#e7b39d" stroke-width="0"/>
          <path id="gp" data-name="path793" d="M604.891,342.761c-6.525,1.202-13.02,2.668-18.338,3.961-1.082,8.347-2.079,16.668-2.984,24.91,5.029-.617,11.456-1.259,18.597-1.713.628-6.236,1.23-12.05,1.658-16.225.319-3.108.685-6.905,1.067-10.934Z" fill="#e7b39d" stroke-width="0"/>
          <path id="gq" data-name="path787" d="M643.735,320.391c-.241-6.685-.439-13.198-.567-18.718-2.66-.447-5.278-.844-7.839-1.157-.49-.06-.974-.109-1.461-.163-1.155-.129-2.304-.243-3.447-.341-.552-.047-1.103-.089-1.652-.129-.599-.043-1.194-.067-1.791-.1-.606,3.75-1.116,7.549-1.269,10.613-.049.988-.185,5.167-.275,7.668,1.83.09,3.668.226,5.51.42,4.155.437,8.465,1.1,12.792,1.905h0Z" fill="#e7b39d" stroke-width="0"/>
          <path id="gr" data-name="path785" d="M608.711,300.41c-2.037.265-4.094.584-6.193.993-.375.073-.754.154-1.132.233-1.028.213-2.065.442-3.113.692-.355.084-.708.166-1.065.255-1.388.345-2.789.712-4.216,1.124-.586,3.394-1.137,6.808-1.687,10.222-.393,2.462-.782,4.927-1.161,7.394,4.92-1.059,10.709-2.048,16.947-2.686.571-6.402,1.173-13.128,1.62-18.226Z" fill="#e7b39d" stroke-width="0"/>
          <path id="gs" data-name="path804" d="M648.384,393.641c.099,4.886.012,8.692-.312,10.964-.209,1.463-.316,3.371-.371,5.408h18.079c.237-.373.452-.812.657-1.283.063-.145.121-.305.182-.459.14-.358.272-.736.396-1.14.056-.184.112-.366.165-.559.12-.436.23-.903.335-1.385.003-.011.006-.02.008-.031.038-.176.08-.338.116-.52.014-.071.025-.154.039-.226.108-.568.208-1.161.298-1.783.052-.362.097-.744.143-1.124.039-.321.075-.646.11-.979.134-1.282.246-2.631.322-4.076-5.647-1.502-11.996-2.64-18.575-2.786-.533-.011-1.06-.013-1.591-.02h0Z" fill="#7a1630" stroke-width="0"/>
          <path id="gt" data-name="path802" d="M599.791,396.066c-.389,5.187-.682,10.008-.793,13.946h23.648c.063-2.51.321-10.978.449-15.546-9.991.701-18.124,1.575-22.601,1.575-.21,0-.472.018-.702.025h0Z" fill="#7a1630" stroke-width="0"/>
          <path id="gu" data-name="path799" d="M602.165,369.92c-.846,8.395-1.739,17.683-2.374,26.147.229-.007.492-.025.702-.025,4.477,0,12.61-.874,22.601-1.575.207-7.4.427-15.031.728-25.184-3.195.008-6.49.037-10.007.112-4.077.087-7.93.288-11.649.524Z" fill="#e7b39d" stroke-width="0"/>
          <path id="gv" data-name="path797" d="M648.384,393.641c.531.008,1.058.008,1.591.02,6.579.146,12.928,1.285,18.575,2.786.048-.908.089-1.835.116-2.801.174-6.235-.092-13.657-.559-21.479-1.864-.348-3.669-.658-5.285-.869-4.419-.576-9.66-1.067-15.756-1.426.743,9.475,1.191,17.552,1.318,23.768h0Z" fill="#e7b39d" stroke-width="0"/>
          <path id="gw" data-name="path796" d="M647.066,369.873c6.096.359,11.337.849,15.756,1.426,1.616.211,3.421.521,5.285.869-.488-8.184-1.204-16.736-1.936-25.051-.014-.158-.027-.319-.041-.477-6.842-1.494-14.325-3.001-21.347-4.171.265,4.139.564,8.111.91,11.703.535,5.566.988,10.79,1.373,15.703Z" fill="#7a1630" stroke-width="0"/>
          <path id="gx" data-name="path794" d="M604.891,342.761c-.382,4.028-.748,7.826-1.067,10.934-.428,4.175-1.03,9.989-1.658,16.225,3.719-.237,7.572-.438,11.649-.524,3.517-.075,6.813-.104,10.007-.112.324-10.904.554-18.751.873-28.913-.134.003-.281-.001-.412.001-5.606.148-12.516,1.122-19.393,2.389h0Z" fill="#7a1630" stroke-width="0"/>
          <path id="gy" data-name="path791" d="M607.092,318.636c-.746,8.366-1.478,16.496-2.201,24.125,6.877-1.267,13.787-2.241,19.393-2.389.13-.003.279,0,.412-.001.308-9.804.544-16.902.738-22.306-6.336-.312-12.533-.023-18.342.571h0Z" fill="#e7b39d" stroke-width="0"/>
          <path id="gz" data-name="path789" d="M644.784,342.468c7.022,1.171,14.505,2.677,21.347,4.171-.679-7.698-1.339-15.097-1.832-21.528-6.5-1.73-13.552-3.415-20.564-4.72.265,7.372.591,14.95,1.048,22.077Z" fill="#e7b39d" stroke-width="0"/>
          <path id="ha" data-name="path788" d="M643.735,320.391c7.011,1.306,14.064,2.99,20.564,4.72-.161-2.105-.303-4.119-.418-5.995-.024-.392-.037-.729-.059-1.11-.087-1.525-.166-3.019-.21-4.349-.019-.569-.012-1.016-.022-1.546-.019-1.023-.05-2.097-.033-2.962.006-.302.022-.563.033-.844.012-.318.018-.657.037-.949.036-.568.083-1.088.145-1.546-3.529-.78-6.886-1.502-10.146-2.17-.28-.058-.568-.119-.847-.175-1.23-.249-2.434-.484-3.633-.714-.542-.104-1.085-.208-1.622-.308-1.209-.225-2.401-.438-3.584-.641-.258-.044-.514-.085-.771-.129.128,5.519.326,12.032.567,18.718h0Z" fill="#7a1630" stroke-width="0"/>
          <path id="hb" data-name="path786" d="M619.147,299.607c-1.122.022-2.246.079-3.374.141-.532.031-1.065.06-1.599.1-.156.011-.315.029-.471.041-1.652.132-3.313.302-4.991.52-.447,5.098-1.049,11.826-1.62,18.228,5.81-.594,12.006-.884,18.342-.571.09-2.501.226-6.68.275-7.668.153-3.064.663-6.864,1.269-10.613-.436-.024-.873-.052-1.308-.071-.661-.03-1.322-.06-1.983-.078-1.514-.038-3.025-.058-4.541-.029h0Z" fill="#7a1630" stroke-width="0"/>
        </g>
        <g id="hc" data-name="Raised hand">
          <g id="hd" data-name="g811">
            <path id="he" data-name="path806" d="M838.012,45.892s5.214-1.639,6.555,1.49,1.043,3.427-.745,5.512c-1.788,2.086-6.853,7.896-8.939,9.833-2.086,1.937-12.068,12.962-15.047,18.027-2.98,5.065-8.045,23.688-11.025,30.84-2.98,7.151-9.833,16.239-10.876,25.327-1.043,9.088,5.065,53.038,5.065,53.038,0,0-30.264,14.663-53.862-3.878,7.585-45.089,7.585-65.316,2.528-74.586-5.057-9.271-14.749-21.491-17.066-28.022-2.318-6.532-6.532-14.117-7.585-17.066-1.053-2.95-1.475-6.321-3.582-9.271-2.107-2.95-4.846-3.582-4.003-6.321s6.11-3.371,11.799.632c5.689,4.003,8.428,12.431,8.428,12.431,0,0,8.006,12.431,10.324,13.485,2.318,1.053,4.635-2.318,5.267-10.113.632-7.796,1.264-26.969,1.686-39.4.421-12.431,1.818-21.81,4.947-23.151,3.129-1.341,6.853-.968,8.641,2.756,1.192,2.309.149,12.515.298,18.921.149,6.406.447,15.494.447,19.07s-.149,14.898,1.937,14.898c2.682-20.709,5.363-28.903,6.853-37.097,1.49-8.194,5.363-19.964,7.002-21.603,1.639-1.639,6.704-3.576,10.578,2.533,1.043,2.086-2.98,20.411-3.576,26.37-.596,5.959-3.725,22.348-4.321,25.923s-1.639,6.555,1.043,7.449c2.682.894,5.214-7.151,8.045-13.856,2.831-6.704,8.045-18.474,9.833-23.688,1.788-5.214,2.682-13.558,7.151-14.153s7.002,1.341,7.449,4.916-6.108,24.582-7.896,31.138c-1.788,6.555-7.151,17.58-7.3,20.113s2.682,2.384,4.767.149,7.3-8.343,13.558-13.111c6.257-4.767,8.641-8.045,11.621-9.535h0Z" fill="#6e3124" fill-rule="evenodd" stroke-width="0"/>
            <path id="hf" data-name="path807" d="M845.088,51.623c.401-2.438-1.642-3.77-3.988-3.24-1.576,1.281-3.959,4.239-3.716,5.375.244,1.136,1.375,2.696,3.889,2.297,1.054-.765,3.815-4.431,3.815-4.431Z" fill="#fcd5c7" fill-rule="evenodd" stroke-width="0"/>
            <path id="hg" data-name="path808" d="M823.205,16.803s-.559,5.508-2.716,6.978-4.804-.196-5.098-2.647c-.294-2.451,1.245-6.39,1.245-6.39,0,0,4.804-2.157,6.568,2.059h0Z" fill="#fcd5c7" fill-rule="evenodd" stroke-width="0"/>
            <path id="hh" data-name="path809" d="M796.064,2.752s-.196,6.735-2.167,8.447c-1.971,1.712-5.531.26-6.109-2.14-.578-2.4.775-7.692.775-7.692,0,0,4.73-2.386,7.501,1.384Z" fill="#fcd5c7" fill-rule="evenodd" stroke-width="0"/>
            <path id="hi" data-name="path810" d="M768.617,4.884s.758,5.337-.981,7.283-5.033,1.059-5.908-1.249c-.875-2.308-.304-6.358-.304-6.358,0,0,3.971-3.068,7.194.324h0Z" fill="#fcd5c7" fill-rule="evenodd" stroke-width="0"/>
            <path id="hj" data-name="path811" d="M719.271,52.149s2.98-.894,4.172,0c2.533,2.98,3.576,4.172,2.98,5.661-.596,1.49-.298,2.384-1.788,1.49s-4.321-4.619-5.363-7.151h0Z" fill="#fcd5c7" fill-rule="evenodd" stroke-width="0"/>
          </g>
          <path id="hk" data-name="path815" d="M771.851,136.245c-1.537-.025-3.119.049-4.822.212l-1.075,19.374s-1.018-10.19-1.813-19.019c-1.075.149-2.166.307-3.372.514-1.52.261-3.016.446-4.471.575.588,9.167,1.244,19.636,1.244,21.294,0,1.773-2.981-11.332-5.073-21.076-1.701.044-3.267.007-4.745-.061,1.203,8.916,2.853,21.156,3.09,22.82.231,1.616-3.774-13.112-6.228-23.032-3.665-.342-6.024-.857-6.024-.857l8.749,44.411,58.876,2.017c1.155-4.62,8.746-28.805,8.537-38.549l-7.725,13.316s2.293-8.78,4.431-16.953c-2.164.104-4.394.68-7.207.957l-5.636,15.996,2.699-15.86c-2.047-.007-4.403-.251-7.19-.916l-4.255,13.748,1.662-14.46c-.377-.115-.737-.212-1.128-.343-1.426-.475-2.714-.888-3.961-1.277l-3.976,16.08s.255-9.154.528-17.09c-1.264-.35-2.491-.671-3.629-.916-1.168,7.304-2.426,15.258-2.619,16.996-.216,1.942-.278-8.449-.306-17.53-1.537-.223-3.031-.348-4.561-.373h0Z" fill="#bf6c26" stroke-width="0"/>
          <path id="hl" data-name="path812" d="M747.249,179.644s24.775-15.092,61.937-3.995c4.288,46.163,7.623,108.749,11.435,121.177,3.812,12.428,4.764,16.423.953,23.081-3.812,6.658-.953,4.439.476,12.872,1.429,8.434-1.906,7.99-1.906,16.867s1.429,14.648,3.335,25.745c1.906,11.097,2.382,34.622,2.382,34.622h-99.1s.953-64.361,6.194-75.458c5.241-11.097,4.288-13.316,3.812-27.076-.476-13.76-9.052-15.536-3.335-26.188,5.717-10.653,8.576-19.974,7.623-35.954-.953-15.979-9.529-53.265,6.194-65.693h0Z" fill="#bf9f7f" stroke-width="0"/>
          <path id="hm" data-name="path817" d="M815.269,251.087c-8.563,3.267-20.551,8.3-25.41,13.159-7.613,7.613,3.806,56.143,3.806,70.892s-9.04,19.032-8.088,29.975c.76,8.74,26.367,16.248,38.845,17.955-.269-2.831-.572-5.522-.942-7.678-1.906-11.097-3.335-16.867-3.335-25.745s3.337-8.432,1.907-16.865-4.289-6.215-.477-12.873c3.812-6.658,2.859-10.652-.953-23.081-1.842-6.005-3.572-23.827-5.353-45.739Z" fill="#bf6c26" stroke-width="0"/>
        </g>
      </g>
    </g>
  </g>
</svg>